<svg id="eU6KT4feFN11" xmlns="http://www.w3.org/2000/svg" xmlns:xlink="http://www.w3.org/1999/xlink" viewBox="0 0 74 50" shape-rendering="geometricPrecision" text-rendering="geometricPrecision" project-id="5c4ee1a88bdc49c284976e02dfd72cc5" export-id="e0dc6603fa4047aeaee7d9450cd2dc3a" cached="false">
<style><![CDATA[
#eU6KT4feFN110 {animation: eU6KT4feFN110_s_do 3000ms linear infinite normal forwards}@keyframes eU6KT4feFN110_s_do { 0% {stroke-dashoffset: 25.63} 100% {stroke-dashoffset: 0}} #eU6KT4feFN111 {animation: eU6KT4feFN111_s_do 3000ms linear infinite normal forwards}@keyframes eU6KT4feFN111_s_do { 0% {stroke-dashoffset: 25.63} 100% {stroke-dashoffset: 0}}
]]></style>
<g clip-path="url(#eU6KT4feFN112)"><g><path d="M16.1626,41.4712h-9.22119" fill="none" stroke="#7d7d7d" stroke-width="2" stroke-linecap="round" stroke-linejoin="round"/><path d="M48.518,41.4712h-17.2211" fill="none" stroke="#7d7d7d" stroke-width="2" stroke-linecap="round" stroke-linejoin="round"/><path d="M6.02734,0.961426h39.96156c.7788,0,1.4134.634614,1.4134,1.413464v17.40381h19.5385l5.125,5.125c.3173.3173.5.7596.5,1.2116v13.9327c0,.7788-.6346,1.4134-1.4135,1.4134h-7.4903" fill="none" stroke="#7d7d7d" stroke-width="2" stroke-linecap="round" stroke-linejoin="round"/><path d="M47.4023,5.15381h13.0385c.5865,0,1.1154.36538,1.3269.91346L66.9504,19.7788" fill="none" stroke="#7d7d7d" stroke-width="2" stroke-linecap="round" stroke-linejoin="round"/><path d="M23.7314,49.0384c4.1793,0,7.5673-3.388,7.5673-7.5673s-3.388-7.5673-7.5673-7.5673-7.5673,3.388-7.5673,7.5673s3.388,7.5673,7.5673,7.5673Z" fill="none" stroke="#7d7d7d" stroke-width="2" stroke-linecap="round" stroke-linejoin="round" stroke-dasharray="47.56"/><path d="M56.0947,49.0384c4.1793,0,7.5673-3.388,7.5673-7.5673s-3.388-7.5673-7.5673-7.5673c-4.1794,0-7.5674,3.388-7.5674,7.5673s3.388,7.5673,7.5674,7.5673Z" fill="none" stroke="#7d7d7d" stroke-width="2" stroke-linecap="round" stroke-linejoin="round"/><path id="eU6KT4feFN110" d="M26.5859,12.4712h-25.624962" fill="none" stroke="#7d7d7d" stroke-width="2" stroke-linecap="round" stroke-linejoin="round" stroke-dashoffset="25.63" stroke-dasharray="25.63"/><path id="eU6KT4feFN111" d="M26.5859,25.2019h-25.624962" fill="none" stroke="#7d7d7d" stroke-width="2" stroke-linecap="round" stroke-linejoin="round" stroke-dashoffset="25.63" stroke-dasharray="25.63"/></g><clipPath id="eU6KT4feFN112"><rect width="73.5288" height="50" rx="0" ry="0" fill="#fff"/></clipPath></g></svg>
