<svg width="44" height="50" viewBox="0 0 44 50" fill="none" xmlns="http://www.w3.org/2000/svg">
<g clip-path="url(#clip0_6_217)">
<path d="M4.13289 36.1178L1.21382 39.0369C0.80017 39.4506 0.800171 40.1212 1.21382 40.5349L9.46532 48.7864C9.87896 49.2 10.5496 49.2 10.9633 48.7864L13.8823 45.8673C14.296 45.4536 14.296 44.783 13.8823 44.3693L5.63083 36.1178C5.21719 35.7042 4.54653 35.7042 4.13289 36.1178Z" stroke="#7D7D7D" stroke-width="2" stroke-linecap="round" stroke-linejoin="round"/>
<path d="M5.91016 36.4022L13.2069 29.1055H26.533C28.1082 29.1055 29.3938 30.3819 29.3938 31.9662C29.3938 33.5415 28.1173 34.827 26.533 34.827H19.2815" stroke="#7D7D7D" stroke-width="2" stroke-linecap="round" stroke-linejoin="round"/>
<path d="M13.5898 44.0884L29.0253 42.0333L42.0888 28.9336C43.2748 27.7476 43.2748 25.8193 42.0888 24.6334C40.9029 23.4474 38.9746 23.4474 37.7887 24.6334L32.9724 29.4496" stroke="#7D7D7D" stroke-width="2" stroke-linecap="round" stroke-linejoin="round"/>
<path d="M23.6552 23.0671C29.775 23.0671 34.7361 18.106 34.7361 11.9862C34.7361 5.86638 29.775 0.905273 23.6552 0.905273C17.5353 0.905273 12.5742 5.86638 12.5742 11.9862C12.5742 18.106 17.5353 23.0671 23.6552 23.0671Z" stroke="#7D7D7D" stroke-width="2" stroke-linecap="round" stroke-linejoin="round"/>
<path d="M19.0586 12.7557L22.0099 15.707L28.2474 9.46948" stroke="#7D7D7D" stroke-width="2" stroke-linecap="round" stroke-linejoin="round"/>
</g>
<defs>
<clipPath id="clip0_6_217">
<rect width="43.8801" height="50" fill="white"/>
</clipPath>
</defs>
</svg>
