<svg id="eKiVQMcgZFm1" xmlns="http://www.w3.org/2000/svg" xmlns:xlink="http://www.w3.org/1999/xlink" viewBox="0 0 35 50" shape-rendering="geometricPrecision" text-rendering="geometricPrecision" project-id="a5ef6f15cd8a4f8c8c206da3bee47cec" export-id="32654cfdfcc849459427134674385146" cached="false">
<style><![CDATA[
#eKiVQMcgZFm4 {animation: eKiVQMcgZFm4_s_do 3448.2758620689656ms linear infinite normal forwards}@keyframes eKiVQMcgZFm4_s_do { 0% {stroke-dashoffset: 78.33} 100% {stroke-dashoffset: 0}}
]]></style>
<g clip-path="url(#eKiVQMcgZFm8)"><g><path id="eKiVQMcgZFm4" d="M15.1284,33.8731v-14.6343c0-2.1418-1.7388-3.8806-3.8806-3.8806s-3.88061,1.7388-3.88061,3.8806s1.7388,3.8805,3.88061,3.8805h12.4776c2.1418,0,3.8806-1.7388,3.8806-3.8805s-1.7388-3.8806-3.8806-3.8806-3.8806,1.7388-3.8806,3.8806v14.6343" fill="none" stroke="#7d7d7d" stroke-width="2" stroke-linecap="round" stroke-linejoin="round" stroke-dashoffset="78.33" stroke-dasharray="78.33"/><path d="M27.0759,33.873h-19.82089c-.8614,0-1.5597.6983-1.5597,1.5597v5.3956c0,.8614.6983,1.5597,1.5597,1.5597h19.82089c.8614,0,1.5597-.6983,1.5597-1.5597v-5.3956c0-.8614-.6983-1.5597-1.5597-1.5597Z" fill="none" stroke="#7d7d7d" stroke-width="2" stroke-linecap="round" stroke-linejoin="round"/><path d="M10.7695,42.3881l2.8135,6.1716c.194.4179.6119.6866,1.0671.6866h5.0821c.4627,0,.8881-.2761,1.0746-.7015l2.7314-6.1642" fill="none" stroke="#7d7d7d" stroke-width="2" stroke-linecap="round" stroke-linejoin="round"/><path d="M26.3953,33.8731l5.2986-9.0597h-.0075c1.2089-2.2911,1.8881-4.8955,1.8881-7.6567c0-9.0672-7.3508-16.410484-16.4105-16.410484s-16.417906,7.350744-16.417906,16.410484c0,2.7686.686566,5.3731,1.888056,7.6567l5.29851,9.0597" fill="none" stroke="#7d7d7d" stroke-width="2" stroke-linecap="round" stroke-linejoin="round"/></g><clipPath id="eKiVQMcgZFm8"><rect width="34.3209" height="50" rx="0" ry="0" fill="#fff"/></clipPath></g></svg>
