<svg id="e0UEKOsG7S31" xmlns="http://www.w3.org/2000/svg" xmlns:xlink="http://www.w3.org/1999/xlink" viewBox="0 0 52 50" shape-rendering="geometricPrecision" text-rendering="geometricPrecision" project-id="7ac62125f8a64cb881c9ffff450020cd" export-id="45885270f23f450bb028cf2ac575a4e4" cached="false">
<style><![CDATA[
#e0UEKOsG7S34 {animation: e0UEKOsG7S34_s_do 3000ms linear infinite normal forwards}@keyframes e0UEKOsG7S34_s_do { 0% {stroke-dashoffset: 28.66} 100% {stroke-dashoffset: 0}} #e0UEKOsG7S35 {animation: e0UEKOsG7S35_s_do 3000ms linear infinite normal forwards}@keyframes e0UEKOsG7S35_s_do { 0% {stroke-dashoffset: 28.66} 100% {stroke-dashoffset: 0}} #e0UEKOsG7S36 {animation: e0UEKOsG7S36_s_do 3000ms linear infinite normal forwards}@keyframes e0UEKOsG7S36_s_do { 0% {stroke-dashoffset: 28.66} 100% {stroke-dashoffset: 0}} #e0UEKOsG7S37 {animation: e0UEKOsG7S37_s_do 3000ms linear infinite normal forwards}@keyframes e0UEKOsG7S37_s_do { 0% {stroke-dashoffset: 34.72} 100% {stroke-dashoffset: 0}} #e0UEKOsG7S310 {animation: e0UEKOsG7S310_s_do 3000ms linear infinite normal forwards}@keyframes e0UEKOsG7S310_s_do { 0% {stroke-dashoffset: 14.39} 100% {stroke-dashoffset: 0}}
]]></style>
<g clip-path="url(#e0UEKOsG7S312)"><g><path id="e0UEKOsG7S34" d="M25.8136,9.86562c2.5183,0,4.5597-2.04145,4.5597-4.5597s-2.0414-4.559704-4.5597-4.559704-4.5597,2.041444-4.5597,4.559704s2.0415,4.5597,4.5597,4.5597Z" fill="none" stroke="#7d7d7d" stroke-width="2" stroke-linecap="round" stroke-linejoin="round" stroke-dashoffset="28.66" stroke-dasharray="28.66"/><path id="e0UEKOsG7S35" d="M46.3449,15.2985c2.5182,0,4.5597-2.0415,4.5597-4.5597s-2.0415-4.55972-4.5597-4.55972c-2.5183,0-4.5597,2.04145-4.5597,4.55972s2.0414,4.5597,4.5597,4.5597Z" fill="none" stroke="#7d7d7d" stroke-width="2" stroke-linecap="round" stroke-linejoin="round" stroke-dashoffset="28.66" stroke-dasharray="28.66"/><path id="e0UEKOsG7S36" d="M5.3058,15.2985c2.51825,0,4.5597-2.0415,4.5597-4.5597s-2.04145-4.55972-4.5597-4.55972-4.559706,2.04145-4.559706,4.55972s2.041446,4.5597,4.559706,4.5597Z" fill="none" stroke="#7d7d7d" stroke-width="2" stroke-linecap="round" stroke-linejoin="round" stroke-dashoffset="28.66" stroke-dasharray="28.66"/><path id="e0UEKOsG7S37" d="M17.0391,23v-3.612c0-2.9627,2.4029-5.3731,5.3731-5.3731h6.6716c2.9627,0,5.3732,2.403,5.3732,5.3731v7.5448" fill="none" stroke="#7d7d7d" stroke-width="2" stroke-linecap="round" stroke-linejoin="round" stroke-dashoffset="34.72" stroke-dasharray="34.72"/><path d="M16.2689,49.2537l-2.9403-7.5373c-.1716-.4477-.6119-.7463-1.0896-.7463h-7.41787c-2.01493,0-3.64925-1.6343-3.64925-3.6492v-14.9851c0-1.5298,1.2388-2.7761,2.77611-2.7761h1.66418c.83582,0,1.62687.3731,2.14926,1.0224l5.20147,6.3507h5.7911c.8731,0,1.5821.709,1.5821,1.5821v2.5597h-10.46273v4.5597h4.42533c1.0896,0,2.0597.7015,2.3881,1.7463l3.6493,11.3806" fill="none" stroke="#7d7d7d" stroke-width="2" stroke-linecap="round" stroke-linejoin="round" stroke-dasharray="99.73"/><path d="M35.3598,49.2537l2.9403-7.5373c.1716-.4477.6119-.7463,1.0895-.7463h7.4105c2.0149,0,3.6492-1.6343,3.6492-3.6492v-14.9851c0-1.5298-1.2388-2.7761-2.7761-2.7761h-1.6642c-.8358,0-1.6268.3731-2.1492,1.0224l-5.2015,6.3507h-5.7911c-.8731,0-1.582.709-1.582,1.5821v2.5597h10.4626v4.5597h-4.4253c-1.0896,0-2.0597.7015-2.3881,1.7463L31.2852,48.7612" fill="none" stroke="#7d7d7d" stroke-width="2" stroke-linecap="round" stroke-linejoin="round" stroke-dasharray="99.72"/><path id="e0UEKOsG7S310" d="M25.8125,34.8657v14.3881" fill="none" stroke="#7d7d7d" stroke-width="2" stroke-linecap="round" stroke-linejoin="round" stroke-dashoffset="14.39" stroke-dasharray="14.39"/><path d="M6.08984,26.2836l3.78359,4.791h31.88057l3.5-4.4925" fill="none" stroke="#7d7d7d" stroke-width="2" stroke-linecap="round" stroke-linejoin="round" stroke-dasharray="43.69"/></g><clipPath id="e0UEKOsG7S312"><rect width="51.6567" height="50" rx="0" ry="0" fill="#fff"/></clipPath></g></svg>
