<svg width="35" height="50" viewBox="0 0 35 50" fill="none" xmlns="http://www.w3.org/2000/svg">
<g clip-path="url(#clip0_6_209)">
<path d="M15.1284 33.8731V19.2388C15.1284 17.097 13.3896 15.3582 11.2478 15.3582C9.10599 15.3582 7.36719 17.097 7.36719 19.2388C7.36719 21.3805 9.10599 23.1193 11.2478 23.1193H23.7254C25.8672 23.1193 27.606 21.3805 27.606 19.2388C27.606 17.097 25.8672 15.3582 23.7254 15.3582C21.5836 15.3582 19.8448 17.097 19.8448 19.2388V33.8731" stroke="#7D7D7D" stroke-width="2" stroke-linecap="round" stroke-linejoin="round"/>
<path d="M27.0759 33.873H7.25501C6.39361 33.873 5.69531 34.5713 5.69531 35.4327V40.8283C5.69531 41.6897 6.39361 42.388 7.25501 42.388H27.0759C27.9373 42.388 28.6356 41.6897 28.6356 40.8283V35.4327C28.6356 34.5713 27.9373 33.873 27.0759 33.873Z" stroke="#7D7D7D" stroke-width="2" stroke-linecap="round" stroke-linejoin="round"/>
<path d="M10.7695 42.3881L13.583 48.5597C13.777 48.9776 14.1949 49.2463 14.6501 49.2463H19.7322C20.1949 49.2463 20.6203 48.9702 20.8068 48.5448L23.5382 42.3806" stroke="#7D7D7D" stroke-width="2" stroke-linecap="round" stroke-linejoin="round"/>
<path d="M26.3953 33.8731L31.6939 24.8134H31.6864C32.8953 22.5223 33.5745 19.9179 33.5745 17.1567C33.5745 8.0895 26.2237 0.746216 17.164 0.746216C8.1043 0.746216 0.746094 8.09696 0.746094 17.1567C0.746094 19.9253 1.43266 22.5298 2.63415 24.8134L7.93266 33.8731" stroke="#7D7D7D" stroke-width="2" stroke-linecap="round" stroke-linejoin="round"/>
</g>
<defs>
<clipPath id="clip0_6_209">
<rect width="34.3209" height="50" fill="white"/>
</clipPath>
</defs>
</svg>
