<svg width="74" height="50" viewBox="0 0 74 50" fill="none" xmlns="http://www.w3.org/2000/svg">
<g clip-path="url(#clip0_6_223)">
<path d="M16.1626 41.4712H6.94141" stroke="#7D7D7D" stroke-width="2" stroke-linecap="round" stroke-linejoin="round"/>
<path d="M48.518 41.4712H31.2969" stroke="#7D7D7D" stroke-width="2" stroke-linecap="round" stroke-linejoin="round"/>
<path d="M6.02734 0.961426H45.9889C46.7677 0.961426 47.4023 1.59604 47.4023 2.37489V19.7787H66.9408L72.0658 24.9037C72.3831 25.221 72.5658 25.6633 72.5658 26.1153V40.048C72.5658 40.8268 71.9312 41.4614 71.1523 41.4614H63.662" stroke="#7D7D7D" stroke-width="2" stroke-linecap="round" stroke-linejoin="round"/>
<path d="M47.4023 5.15381H60.4408C61.0273 5.15381 61.5562 5.51919 61.7677 6.06727L66.9504 19.7788" stroke="#7D7D7D" stroke-width="2" stroke-linecap="round" stroke-linejoin="round"/>
<path d="M23.7314 49.0384C27.9107 49.0384 31.2987 45.6504 31.2987 41.4711C31.2987 37.2918 27.9107 33.9038 23.7314 33.9038C19.5521 33.9038 16.1641 37.2918 16.1641 41.4711C16.1641 45.6504 19.5521 49.0384 23.7314 49.0384Z" stroke="#7D7D7D" stroke-width="2" stroke-linecap="round" stroke-linejoin="round"/>
<path d="M56.0947 49.0384C60.274 49.0384 63.662 45.6504 63.662 41.4711C63.662 37.2918 60.274 33.9038 56.0947 33.9038C51.9153 33.9038 48.5273 37.2918 48.5273 41.4711C48.5273 45.6504 51.9153 49.0384 56.0947 49.0384Z" stroke="#7D7D7D" stroke-width="2" stroke-linecap="round" stroke-linejoin="round"/>
<path d="M26.5859 12.4712H0.960938" stroke="#7D7D7D" stroke-width="2" stroke-linecap="round" stroke-linejoin="round"/>
<path d="M26.5859 25.2019H0.960938" stroke="#7D7D7D" stroke-width="2" stroke-linecap="round" stroke-linejoin="round"/>
</g>
<defs>
<clipPath id="clip0_6_223">
<rect width="73.5288" height="50" fill="white"/>
</clipPath>
</defs>
</svg>
