<svg id="et1eOFoQD2v1" xmlns="http://www.w3.org/2000/svg" xmlns:xlink="http://www.w3.org/1999/xlink" viewBox="0 0 44 50" shape-rendering="geometricPrecision" text-rendering="geometricPrecision" project-id="f9de7547ca474b6fbae1b65f579327c5" export-id="9beb789f43e84875b6904798d02dc7b8" cached="false">
<style><![CDATA[
#et1eOFoQD2v7 {animation: et1eOFoQD2v7_s_do 3000ms linear infinite normal forwards}@keyframes et1eOFoQD2v7_s_do { 0% {stroke-dashoffset: 69.64} 100% {stroke-dashoffset: 0}} #et1eOFoQD2v8 {animation: et1eOFoQD2v8_s_do 3000ms linear infinite normal forwards}@keyframes et1eOFoQD2v8_s_do { 0% {stroke-dashoffset: 13} 43.333333% {stroke-dashoffset: 13} 100% {stroke-dashoffset: 0}}
]]></style>
<g clip-path="url(#et1eOFoQD2v9)"><g><path d="M4.13289,36.1178L1.21382,39.0369c-.41365.4137-.413649,1.0843,0,1.498l8.2515,8.2515c.41364.4136,1.08428.4136,1.49798,0l2.919-2.9191c.4137-.4137.4137-1.0843,0-1.498L5.63083,36.1178c-.41364-.4136-1.0843-.4136-1.49794,0Z" fill="none" stroke="#7d7d7d" stroke-width="2" stroke-linecap="round" stroke-linejoin="round"/><path d="M5.91016,36.4022l7.29674-7.2967h13.3261c1.5752,0,2.8608,1.2764,2.8608,2.8607c0,1.5753-1.2765,2.8608-2.8608,2.8608h-7.2515" fill="none" stroke="#7d7d7d" stroke-width="2" stroke-linecap="round" stroke-linejoin="round"/><path d="M13.5898,44.0884l15.4355-2.0551L42.0888,28.9336c1.186-1.186,1.186-3.1143,0-4.3002-1.1859-1.186-3.1142-1.186-4.3001,0l-4.8163,4.8162" fill="none" stroke="#7d7d7d" stroke-width="2" stroke-linecap="round" stroke-linejoin="round"/><path id="et1eOFoQD2v7" d="M23.6552,23.0671c6.1198,0,11.0809-4.9611,11.0809-11.0809s-4.9611-11.080927-11.0809-11.080927c-6.1199,0-11.081,4.961107-11.081,11.080927s4.9611,11.0809,11.081,11.0809Z" fill="none" stroke="#7d7d7d" stroke-width="2" stroke-linecap="round" stroke-linejoin="round" stroke-dashoffset="69.64" stroke-dasharray="69.64"/><path id="et1eOFoQD2v8" d="M19.0586,12.7557l2.9513,2.9513l6.2375-6.23752" fill="none" stroke="#7d7d7d" stroke-width="2" stroke-linecap="round" stroke-linejoin="round" stroke-dashoffset="13" stroke-dasharray="13"/></g><clipPath id="et1eOFoQD2v9"><rect width="43.8801" height="50" rx="0" ry="0" fill="#fff"/></clipPath></g></svg>
