<svg width="52" height="50" viewBox="0 0 52 50" fill="none" xmlns="http://www.w3.org/2000/svg">
<g clip-path="url(#clip0_6_200)">
<path d="M25.8136 9.86562C28.3319 9.86562 30.3733 7.82417 30.3733 5.30592C30.3733 2.78766 28.3319 0.746216 25.8136 0.746216C23.2954 0.746216 21.2539 2.78766 21.2539 5.30592C21.2539 7.82417 23.2954 9.86562 25.8136 9.86562Z" stroke="#7D7D7D" stroke-width="2" stroke-linecap="round" stroke-linejoin="round"/>
<path d="M46.3449 15.2985C48.8631 15.2985 50.9046 13.257 50.9046 10.7388C50.9046 8.22053 48.8631 6.17908 46.3449 6.17908C43.8266 6.17908 41.7852 8.22053 41.7852 10.7388C41.7852 13.257 43.8266 15.2985 46.3449 15.2985Z" stroke="#7D7D7D" stroke-width="2" stroke-linecap="round" stroke-linejoin="round"/>
<path d="M5.3058 15.2985C7.82405 15.2985 9.8655 13.257 9.8655 10.7388C9.8655 8.22053 7.82405 6.17908 5.3058 6.17908C2.78754 6.17908 0.746094 8.22053 0.746094 10.7388C0.746094 13.257 2.78754 15.2985 5.3058 15.2985Z" stroke="#7D7D7D" stroke-width="2" stroke-linecap="round" stroke-linejoin="round"/>
<path d="M17.0391 23V19.388C17.0391 16.4253 19.442 14.0149 22.4122 14.0149H29.0838C32.0465 14.0149 34.457 16.4179 34.457 19.388V26.9328" stroke="#7D7D7D" stroke-width="2" stroke-linecap="round" stroke-linejoin="round"/>
<path d="M16.2689 49.2537L13.3286 41.7164C13.157 41.2687 12.7167 40.9701 12.239 40.9701H4.82113C2.8062 40.9701 1.17188 39.3358 1.17188 37.3209V22.3358C1.17188 20.806 2.41068 19.5597 3.94799 19.5597H5.61217C6.44799 19.5597 7.23904 19.9328 7.76143 20.5821L12.9629 26.9328H18.754C19.6271 26.9328 20.3361 27.6418 20.3361 28.5149V31.0746H9.87337V35.6343H14.2987C15.3883 35.6343 16.3584 36.3358 16.6868 37.3806L20.3361 48.7612" stroke="#7D7D7D" stroke-width="2" stroke-linecap="round" stroke-linejoin="round"/>
<path d="M35.3598 49.2537L38.3001 41.7164C38.4717 41.2687 38.912 40.9701 39.3896 40.9701H46.8001C48.815 40.9701 50.4493 39.3358 50.4493 37.3209V22.3358C50.4493 20.806 49.2105 19.5597 47.6732 19.5597H46.009C45.1732 19.5597 44.3822 19.9328 43.8598 20.5821L38.6583 26.9328H32.8672C31.9941 26.9328 31.2852 27.6418 31.2852 28.5149V31.0746H41.7478V35.6343H37.3225C36.2329 35.6343 35.2628 36.3358 34.9344 37.3806L31.2852 48.7612" stroke="#7D7D7D" stroke-width="2" stroke-linecap="round" stroke-linejoin="round"/>
<path d="M25.8125 34.8657V49.2538" stroke="#7D7D7D" stroke-width="2" stroke-linecap="round" stroke-linejoin="round"/>
<path d="M6.08984 26.2836L9.87343 31.0746H41.754L45.254 26.5821" stroke="#7D7D7D" stroke-width="2" stroke-linecap="round" stroke-linejoin="round"/>
</g>
<defs>
<clipPath id="clip0_6_200">
<rect width="51.6567" height="50" fill="white"/>
</clipPath>
</defs>
</svg>
