<svg width="55" height="50" viewBox="0 0 55 50" fill="none" xmlns="http://www.w3.org/2000/svg">
<g clip-path="url(#clip0_6_771)">
<path d="M27.6445 41.7308V23.7019" stroke="white" stroke-width="2" stroke-linecap="round" stroke-linejoin="round"/>
<path d="M27.7037 23.702C25.7999 21.8366 24.6172 19.2308 24.6172 16.3558C24.6172 13.4808 25.7999 10.875 27.7037 9.00964C29.6076 10.875 30.7903 13.4808 30.7903 16.3558C30.7903 19.2308 29.6076 21.8366 27.7037 23.702Z" stroke="white" stroke-width="2" stroke-linecap="round" stroke-linejoin="round"/>
<path d="M27.6445 33.4231L30.7311 30.3365" stroke="white" stroke-width="2" stroke-linecap="round" stroke-linejoin="round"/>
<path d="M30.7779 30.375C30.7491 27.7115 31.7587 25.0288 33.7876 23C35.8164 20.9711 38.4991 19.9615 41.1626 19.9903C41.1914 22.6538 40.1818 25.3365 38.1529 27.3653C36.1241 29.3942 33.4414 30.4038 30.7779 30.375Z" stroke="white" stroke-width="2" stroke-linecap="round" stroke-linejoin="round"/>
<path d="M27.6451 33.4231L24.5586 30.3365" stroke="white" stroke-width="2" stroke-linecap="round" stroke-linejoin="round"/>
<path d="M24.5102 30.375C24.5391 27.7115 23.5294 25.0288 21.5006 23C19.4718 20.9711 16.7891 19.9615 14.1256 19.9903C14.0968 22.6538 15.1064 25.3365 17.1352 27.3653C19.1641 29.3942 21.8468 30.4038 24.5102 30.375Z" stroke="white" stroke-width="2" stroke-linecap="round" stroke-linejoin="round"/>
<path d="M4.44201 31.3173C3.89393 29.3077 3.60547 27.1827 3.60547 25C3.60547 11.7212 14.3651 0.961548 27.6439 0.961548C31.6151 0.961548 35.3651 1.92309 38.6632 3.63462" stroke="white" stroke-width="2" stroke-linecap="round" stroke-linejoin="round"/>
<path d="M50.6824 18.1346C51.3266 20.3077 51.6824 22.6154 51.6824 25C51.6824 38.2789 40.9228 49.0385 27.6439 49.0385C23.7689 49.0385 20.1055 48.1154 16.8555 46.4904" stroke="white" stroke-width="2" stroke-linecap="round" stroke-linejoin="round"/>
<path d="M48.8567 18.2981C51.7137 18.2981 54.0297 15.982 54.0297 13.125C54.0297 10.268 51.7137 7.9519 48.8567 7.9519C45.9997 7.9519 43.6836 10.268 43.6836 13.125C43.6836 15.982 45.9997 18.2981 48.8567 18.2981Z" stroke="white" stroke-width="2" stroke-linecap="round" stroke-linejoin="round"/>
<path d="M6.13401 41.5481C8.99103 41.5481 11.3071 39.232 11.3071 36.375C11.3071 33.518 8.99103 31.2019 6.13401 31.2019C3.277 31.2019 0.960938 33.518 0.960938 36.375C0.960938 39.232 3.277 41.5481 6.13401 41.5481Z" stroke="white" stroke-width="2" stroke-linecap="round" stroke-linejoin="round"/>
</g>
<defs>
<clipPath id="clip0_6_771">
<rect width="54.9904" height="50" fill="white"/>
</clipPath>
</defs>
</svg>
