<svg width="47" height="50" viewBox="0 0 47 50" fill="none" xmlns="http://www.w3.org/2000/svg">
<g clip-path="url(#clip0_6_757)">
<path d="M37.5021 49.4474L45.0162 38.7047C45.6561 37.7933 45.9954 36.7074 45.9954 35.5924V20.3898C45.9954 19.2166 45.0453 18.2665 43.8721 18.2665C42.6989 18.2665 41.7488 19.2166 41.7488 20.3898V32.8777C41.7488 33.5079 41.5161 34.109 41.0895 34.5744L35.9023 40.256" stroke="white" stroke-width="2" stroke-miterlimit="10"/>
<path d="M27.0898 49.4475L28.7575 41.6522C29.1647 39.7422 30.173 38.0067 31.6274 36.6978L36.8436 32.0245C37.8422 31.1229 39.3838 31.2101 40.2758 32.2088C41.1096 33.1395 41.1096 34.5551 40.2661 35.4762L39.1511 36.6978" stroke="white" stroke-width="2" stroke-miterlimit="10"/>
<path d="M9.46206 49.4474L1.948 38.7047C1.30809 37.7933 0.96875 36.7074 0.96875 35.5924V20.3898C0.96875 19.2166 1.91891 18.2665 3.09208 18.2665C4.26524 18.2665 5.21541 19.2166 5.21541 20.3898V32.8777C5.21541 33.5079 5.4481 34.109 5.8747 34.5744L11.0618 40.256" stroke="white" stroke-width="2" stroke-miterlimit="10"/>
<path d="M19.8843 49.4475L18.2167 41.6522C17.8095 39.7422 16.8011 38.0067 15.3468 36.6978L10.1306 32.0245C9.13196 31.1229 7.59037 31.2101 6.69838 32.2088C5.86456 33.1395 5.86456 34.5551 6.70807 35.4762L7.82306 36.6978" stroke="white" stroke-width="2" stroke-miterlimit="10"/>
<path d="M21.1857 14.5531H14.7188L26.1401 0.969604V14.5531H32.258L21.1857 27.8942V14.5531Z" stroke="white" stroke-width="2" stroke-linecap="round" stroke-linejoin="round"/>
</g>
<defs>
<clipPath id="clip0_6_757">
<rect width="46.9653" height="50" fill="white"/>
</clipPath>
</defs>
</svg>
