<svg id="e9QLzunHCFO1" xmlns="http://www.w3.org/2000/svg" xmlns:xlink="http://www.w3.org/1999/xlink" viewBox="0 0 47 50" shape-rendering="geometricPrecision" text-rendering="geometricPrecision" project-id="d9724a7342f14ebd819b3b289d4447cb" export-id="b79de0b2b704464b8256a7886e131732" cached="false">
<style><![CDATA[
#e9QLzunHCFO4 {animation: e9QLzunHCFO4_s_do 3000ms linear infinite normal forwards}@keyframes e9QLzunHCFO4_s_do { 0% {stroke-dashoffset: 80} 50% {stroke-dashoffset: 0} 100% {stroke-dashoffset: 0}} #e9QLzunHCFO5 {animation: e9QLzunHCFO5_s_do 3000ms linear infinite normal forwards}@keyframes e9QLzunHCFO5_s_do { 0% {stroke-dashoffset: 80} 50% {stroke-dashoffset: 0} 100% {stroke-dashoffset: 0}} #e9QLzunHCFO6 {animation: e9QLzunHCFO6_s_do 3000ms linear infinite normal forwards}@keyframes e9QLzunHCFO6_s_do { 0% {stroke-dashoffset: 80} 50% {stroke-dashoffset: 0} 100% {stroke-dashoffset: 0}} #e9QLzunHCFO7 {animation: e9QLzunHCFO7_s_do 3000ms linear infinite normal forwards}@keyframes e9QLzunHCFO7_s_do { 0% {stroke-dashoffset: 80} 50% {stroke-dashoffset: 0} 100% {stroke-dashoffset: 0}} #e9QLzunHCFO8 {animation: e9QLzunHCFO8_s_do 3000ms linear infinite normal forwards}@keyframes e9QLzunHCFO8_s_do { 0% {stroke-dashoffset: 80} 50% {stroke-dashoffset: 0} 100% {stroke-dashoffset: 0}}
]]></style>
<g clip-path="url(#e9QLzunHCFO9)"><g><path id="e9QLzunHCFO4" d="M37.5021,49.4474l7.5141-10.7427c.6399-.9114.9792-1.9973.9792-3.1123v-15.2026c0-1.1732-.9501-2.1233-2.1233-2.1233s-2.1233.9501-2.1233,2.1233v12.4879c0,.6302-.2327,1.2313-.6593,1.6967L35.9023,40.256" fill="none" stroke="#fff" stroke-width="2" stroke-miterlimit="10" stroke-dashoffset="80" stroke-dasharray="80"/><path id="e9QLzunHCFO5" d="M27.0898,49.4475l1.6677-7.7953c.4072-1.91,1.4155-3.6455,2.8699-4.9544l5.2162-4.6733c.9986-.9016,2.5402-.8144,3.4322.1843.8338.9307.8338,2.3463-.0097,3.2674l-1.115,1.2216" fill="none" stroke="#fff" stroke-width="2" stroke-miterlimit="10" stroke-dashoffset="80" stroke-dasharray="80"/><path id="e9QLzunHCFO6" d="M9.46206,49.4474L1.948,38.7047c-.63991-.9114-.97925-1.9973-.97925-3.1123v-15.2026c0-1.1732.95016-2.1233,2.12333-2.1233s2.12333.9501,2.12333,2.1233v12.4879c0,.6302.23269,1.2313.65929,1.6967l5.1871,5.6816" fill="none" stroke="#fff" stroke-width="2" stroke-miterlimit="10" stroke-dashoffset="80" stroke-dasharray="80"/><path id="e9QLzunHCFO7" d="M19.8843,49.4475l-1.6676-7.7953c-.4072-1.91-1.4156-3.6455-2.8699-4.9544l-5.2162-4.6733c-.99864-.9016-2.54023-.8144-3.43222.1843-.83382.9307-.83382,2.3463.00969,3.2674l1.11499,1.2216" fill="none" stroke="#fff" stroke-width="2" stroke-miterlimit="10" stroke-dashoffset="80" stroke-dasharray="80"/><path id="e9QLzunHCFO8" d="M21.1857,14.5531h-6.4669L26.1401,0.969604v13.583496h6.1179L21.1857,27.8942v-13.3411Z" fill="none" stroke="#fff" stroke-width="2" stroke-linecap="round" stroke-linejoin="round" stroke-dashoffset="80" stroke-dasharray="80"/></g><clipPath id="e9QLzunHCFO9"><rect width="46.9653" height="50" rx="0" ry="0" fill="#fff"/></clipPath></g></svg>
