<svg id="ejuN35O6CEl1" xmlns="http://www.w3.org/2000/svg" xmlns:xlink="http://www.w3.org/1999/xlink" viewBox="0 0 55 50" shape-rendering="geometricPrecision" text-rendering="geometricPrecision" project-id="8572501d95f14f96b129273ace8bad1b" export-id="e28b058576714334b6574ecbe0daf016" cached="false">
<style><![CDATA[
#ejuN35O6CEl4 {animation: ejuN35O6CEl4_s_do 3000ms linear infinite normal forwards}@keyframes ejuN35O6CEl4_s_do { 0% {stroke-dashoffset: 200} 56.666667% {stroke-dashoffset: 0} 100% {stroke-dashoffset: 0}} #ejuN35O6CEl5 {animation: ejuN35O6CEl5_s_do 3000ms linear infinite normal forwards}@keyframes ejuN35O6CEl5_s_do { 0% {stroke-dashoffset: 200} 56.666667% {stroke-dashoffset: 0} 100% {stroke-dashoffset: 0}} #ejuN35O6CEl6 {animation: ejuN35O6CEl6_s_do 3000ms linear infinite normal forwards}@keyframes ejuN35O6CEl6_s_do { 0% {stroke-dashoffset: 200} 56.666667% {stroke-dashoffset: 0} 100% {stroke-dashoffset: 0}} #ejuN35O6CEl7 {animation: ejuN35O6CEl7_s_do 3000ms linear infinite normal forwards}@keyframes ejuN35O6CEl7_s_do { 0% {stroke-dashoffset: 200} 53.333333% {stroke-dashoffset: 0} 100% {stroke-dashoffset: 0}} #ejuN35O6CEl8 {animation: ejuN35O6CEl8_s_do 3000ms linear infinite normal forwards}@keyframes ejuN35O6CEl8_s_do { 0% {stroke-dashoffset: 200} 60% {stroke-dashoffset: 0} 100% {stroke-dashoffset: 0}} #ejuN35O6CEl9 {animation: ejuN35O6CEl9_s_do 3000ms linear infinite normal forwards}@keyframes ejuN35O6CEl9_s_do { 0% {stroke-dashoffset: 200} 56.666667% {stroke-dashoffset: 0} 100% {stroke-dashoffset: 0}} #ejuN35O6CEl10 {animation: ejuN35O6CEl10_s_do 3000ms linear infinite normal forwards}@keyframes ejuN35O6CEl10_s_do { 0% {stroke-dashoffset: 200} 63.333333% {stroke-dashoffset: 0} 100% {stroke-dashoffset: 0}} #ejuN35O6CEl11 {animation: ejuN35O6CEl11_s_do 3000ms linear infinite normal forwards}@keyframes ejuN35O6CEl11_s_do { 0% {stroke-dashoffset: 200} 63.333333% {stroke-dashoffset: 0} 100% {stroke-dashoffset: 0}} #ejuN35O6CEl12 {animation: ejuN35O6CEl12_s_do 3000ms linear infinite normal forwards}@keyframes ejuN35O6CEl12_s_do { 0% {stroke-dashoffset: 200} 60% {stroke-dashoffset: 0} 100% {stroke-dashoffset: 0}} #ejuN35O6CEl13 {animation: ejuN35O6CEl13_s_do 3000ms linear infinite normal forwards}@keyframes ejuN35O6CEl13_s_do { 0% {stroke-dashoffset: 200} 53.333333% {stroke-dashoffset: 0} 100% {stroke-dashoffset: 0}}
]]></style>
<g clip-path="url(#ejuN35O6CEl14)"><g><path id="ejuN35O6CEl4" d="M27.6445,41.7308v-18.0289" fill="none" stroke="#fff" stroke-width="2" stroke-linecap="round" stroke-linejoin="round" stroke-dashoffset="200" stroke-dasharray="200"/><path id="ejuN35O6CEl5" d="M27.7037,23.702c-1.9038-1.8654-3.0865-4.4712-3.0865-7.3462s1.1827-5.4808,3.0865-7.34616c1.9039,1.86536,3.0866,4.47116,3.0866,7.34616s-1.1827,5.4808-3.0866,7.3462Z" fill="none" stroke="#fff" stroke-width="2" stroke-linecap="round" stroke-linejoin="round" stroke-dashoffset="200" stroke-dasharray="200"/><path id="ejuN35O6CEl6" d="M27.6445,33.4231l3.0866-3.0866" fill="none" stroke="#fff" stroke-width="2" stroke-linecap="round" stroke-linejoin="round" stroke-dashoffset="200" stroke-dasharray="200"/><path id="ejuN35O6CEl7" d="M30.7779,30.375c-.0288-2.6635.9808-5.3462,3.0097-7.375s4.7115-3.0385,7.375-3.0097c.0288,2.6635-.9808,5.3462-3.0097,7.375s-4.7115,3.0385-7.375,3.0097Z" fill="none" stroke="#fff" stroke-width="2" stroke-linecap="round" stroke-linejoin="round" stroke-dashoffset="200" stroke-dasharray="200"/><path id="ejuN35O6CEl8" d="M27.6451,33.4231l-3.0865-3.0866" fill="none" stroke="#fff" stroke-width="2" stroke-linecap="round" stroke-linejoin="round" stroke-dashoffset="200" stroke-dasharray="200"/><path id="ejuN35O6CEl9" d="M24.5102,30.375c.0289-2.6635-.9808-5.3462-3.0096-7.375s-4.7115-3.0385-7.375-3.0097c-.0288,2.6635.9808,5.3462,3.0096,7.375s4.7116,3.0385,7.375,3.0097Z" fill="none" stroke="#fff" stroke-width="2" stroke-linecap="round" stroke-linejoin="round" stroke-dashoffset="200" stroke-dasharray="200"/><path id="ejuN35O6CEl10" d="M4.44201,31.3173C3.89393,29.3077,3.60547,27.1827,3.60547,25c0-13.2788,10.75963-24.038452,24.03843-24.038452c3.9712,0,7.7212.961542,11.0193,2.673072" fill="none" stroke="#fff" stroke-width="2" stroke-linecap="round" stroke-linejoin="round" stroke-dashoffset="200" stroke-dasharray="200"/><path id="ejuN35O6CEl11" d="M50.6824,18.1346c.6442,2.1731,1,4.4808,1,6.8654c0,13.2789-10.7596,24.0385-24.0385,24.0385-3.875,0-7.5384-.9231-10.7884-2.5481" transform="translate(0 0.1635)" fill="none" stroke="#fff" stroke-width="2" stroke-linecap="round" stroke-linejoin="round" stroke-dashoffset="200" stroke-dasharray="200"/><path id="ejuN35O6CEl12" d="M48.8567,18.2981c2.857,0,5.173-2.3161,5.173-5.1731s-2.316-5.1731-5.173-5.1731-5.1731,2.3161-5.1731,5.1731s2.3161,5.1731,5.1731,5.1731Z" fill="none" stroke="#fff" stroke-width="2" stroke-linecap="round" stroke-linejoin="round" stroke-dashoffset="200" stroke-dasharray="200"/><path id="ejuN35O6CEl13" d="M6.13401,41.5481c2.85702,0,5.17309-2.3161,5.17309-5.1731s-2.31607-5.1731-5.17309-5.1731-5.173072,2.3161-5.173072,5.1731s2.316062,5.1731,5.173072,5.1731Z" fill="none" stroke="#fff" stroke-width="2" stroke-linecap="round" stroke-linejoin="round" stroke-dashoffset="200" stroke-dasharray="200"/></g><clipPath id="ejuN35O6CEl14"><rect width="54.9904" height="50" rx="0" ry="0" fill="#fff"/></clipPath></g></svg>
