<svg width="220" height="58" viewBox="0 0 220 58" fill="none" xmlns="http://www.w3.org/2000/svg">
<g clip-path="url(#clip0_1271_1350)">
<path d="M37.8856 32.9611H41.9128C42.1083 32.9611 42.2692 33.1192 42.2692 33.3176V35.2553C42.2692 35.3789 42.4216 35.4364 42.5021 35.3415C43.146 34.6113 44.9914 32.6621 47.8084 32.6621C49.8982 32.6621 51.7551 33.4326 52.8215 35.2064C52.9509 35.422 53.2498 35.445 53.4079 35.2495C54.5175 33.8868 56.2911 32.711 58.5849 32.711C62.4569 32.711 65.2279 34.4791 65.2279 39.125V50.7138C65.2279 50.9093 65.0698 51.0703 64.8714 51.0703H60.5769C60.3815 51.0703 60.2205 50.9122 60.2205 50.7138V40.9563C60.2205 38.5672 60.0193 36.6036 57.1822 36.6036C54.345 36.6036 53.8104 38.8605 53.8104 41.1202V50.7138C53.8104 50.9093 53.6523 51.0703 53.4539 51.0703H49.1594C48.964 51.0703 48.803 50.9122 48.803 50.7138V41.054C48.803 38.9582 48.9697 36.6036 45.7991 36.6036C44.7988 36.6036 42.5308 37.2246 42.5308 40.6947V50.7138C42.5308 50.9093 42.3727 51.0703 42.1744 51.0703H37.8799C37.6844 51.0703 37.5234 50.9122 37.5234 50.7138V33.3176C37.5234 33.1221 37.6815 32.9611 37.8799 32.9611H37.8856Z" fill="#231916"/>
<path d="M73.6698 30.3276H69.5967C69.4012 30.3276 69.2402 30.1695 69.2402 29.9712V26.6017C69.2402 26.4062 69.3983 26.2452 69.5967 26.2452H73.6698C73.8653 26.2452 74.0263 26.4034 74.0263 26.6017V29.9712C74.0263 30.1666 73.8682 30.3276 73.6698 30.3276ZM69.5967 33.0933H73.6698C73.8653 33.0933 74.0263 33.2514 74.0263 33.4498V50.7167C74.0263 50.9122 73.8682 51.0731 73.6698 51.0731H69.5967C69.4012 51.0731 69.2402 50.915 69.2402 50.7167V33.4498C69.2402 33.2543 69.3983 33.0933 69.5967 33.0933Z" fill="#231916"/>
<path d="M145.935 30.3276H141.862C141.667 30.3276 141.506 30.1695 141.506 29.9712V26.6017C141.506 26.4062 141.664 26.2452 141.862 26.2452H145.935C146.131 26.2452 146.292 26.4034 146.292 26.6017V29.9712C146.292 30.1666 146.134 30.3276 145.935 30.3276ZM141.862 33.0933H145.935C146.131 33.0933 146.292 33.2514 146.292 33.4498V50.7167C146.292 50.9122 146.134 51.0731 145.935 51.0731H141.862C141.667 51.0731 141.506 50.915 141.506 50.7167V33.4498C141.506 33.2543 141.664 33.0933 141.862 33.0933Z" fill="#231916"/>
<path d="M90.5787 39.4153C90.4148 39.4153 90.2682 39.3032 90.2338 39.1393C89.8342 37.2965 88.5723 36.3046 86.6176 36.3046C83.4442 36.3046 82.3892 39.5131 82.3892 42.1925C82.3892 44.8719 83.4126 47.882 86.5199 47.882C88.7016 47.882 90.0038 46.5193 90.4033 44.4924C90.435 44.3286 90.5844 44.2107 90.7512 44.2107H94.8301C95.0514 44.2107 95.2181 44.412 95.1808 44.6304C94.4161 49.1585 91.1392 51.6194 86.5544 51.6194C81.1015 51.6194 77.4336 47.7814 77.4336 42.3592C77.4336 36.9371 80.7709 32.5672 86.6521 32.5672C90.7885 32.5672 94.5829 34.6861 95.0744 39.0128C95.0974 39.2256 94.9336 39.4153 94.7208 39.4153H90.5816H90.5787Z" fill="#231916"/>
<path d="M98.4394 33.0617H102.392C102.587 33.0617 102.748 33.2198 102.748 33.4182L102.714 35.7009C102.714 35.859 102.921 35.9137 102.995 35.7757C104.059 33.8466 106.33 32.5672 108.486 32.5672C108.73 32.5672 109.032 32.6046 109.305 32.6794C109.457 32.7225 109.561 32.8633 109.561 33.0215V36.9256C109.561 37.1412 109.371 37.308 109.156 37.2792C108.739 37.2217 108.233 37.1844 107.799 37.1844C104.211 37.1844 102.972 39.7891 102.972 42.9572V50.7138C102.972 50.9093 102.814 51.0703 102.616 51.0703H98.4365C98.2411 51.0703 98.0801 50.9122 98.0801 50.7138V33.4182C98.0801 33.2227 98.2382 33.0617 98.4365 33.0617H98.4394Z" fill="#231916"/>
<path d="M119.771 32.6305C125.497 32.6305 129.191 36.388 129.191 42.158C129.191 47.928 125.497 51.6194 119.771 51.6194C114.045 51.6194 110.383 47.8619 110.383 42.158C110.383 36.4541 114.077 32.6305 119.771 32.6305ZM119.771 47.8935C123.166 47.8935 124.198 44.9927 124.198 42.158C124.198 39.3233 123.166 36.3564 119.771 36.3564C116.376 36.3564 115.376 39.2572 115.376 42.158C115.376 45.0588 116.408 47.8935 119.771 47.8935Z" fill="#231916"/>
<path d="M132.687 26.3574H136.76C136.955 26.3574 137.116 26.5155 137.116 26.7139V50.7138C137.116 50.9093 136.958 51.0703 136.76 51.0703H132.687C132.491 51.0703 132.33 50.9122 132.33 50.7138V26.7139C132.33 26.5184 132.488 26.3574 132.687 26.3574Z" fill="#231916"/>
<path d="M167.423 49.995C167.423 52.9649 166.374 57.9845 158.152 57.9845C154.735 57.9845 150.547 56.2222 150.078 52.4215C150.052 52.2087 150.219 52.019 150.432 52.019H154.651C154.804 52.019 154.916 52.1254 154.988 52.2605C155.847 53.8877 157.213 54.5662 158.868 54.5748C161.021 54.5863 162.769 52.8039 162.734 50.1963L162.709 48.273C162.709 48.1493 162.55 48.1033 162.479 48.204C161.34 49.8456 159.317 50.6247 157.296 50.6247C151.958 50.6247 149.664 46.5308 149.664 41.5772C149.664 36.8882 152.317 32.6305 157.362 32.6305C159.515 32.6305 161.248 33.3377 162.427 35.0914C162.51 35.2179 162.706 35.1633 162.709 35.0109L162.732 33.4814C162.732 33.2859 162.89 33.125 163.088 33.125H167.061C167.256 33.125 167.417 33.2831 167.417 33.4814V49.995H167.423ZM162.74 41.9079C162.74 39.0013 161.757 36.3621 158.549 36.3621C155.798 36.3621 154.585 38.8058 154.585 41.5111C154.585 44.2164 155.568 46.893 158.549 46.893C161.366 46.893 162.74 44.4838 162.74 41.9079Z" fill="#231916"/>
<path d="M171.737 26.3574H175.997C176.193 26.3574 176.354 26.5155 176.354 26.7139L176.414 35.1345C176.414 35.2812 176.601 35.3415 176.69 35.2237C177.981 33.5016 180.024 32.6506 181.755 32.6506C187.024 32.6506 188.349 35.5859 188.349 39.9874V50.5873C188.349 50.7828 188.191 50.9438 187.993 50.9438H183.735C183.54 50.9438 183.379 50.7857 183.379 50.5873V40.8988C183.379 37.9635 182.517 36.5289 180.197 36.5289C177.512 36.5289 176.354 37.9951 176.354 41.6146V50.5844C176.354 50.7799 176.196 50.9409 175.997 50.9409H171.737C171.542 50.9409 171.381 50.7828 171.381 50.5844V26.7081C171.381 26.5126 171.539 26.3516 171.737 26.3516V26.3574Z" fill="#231916"/>
<path d="M198.654 33.148H201.586C201.782 33.148 201.943 33.3061 201.943 33.5045V36.0747C201.943 36.2702 201.785 36.4311 201.586 36.4311H198.654C198.459 36.4311 198.298 36.5893 198.298 36.7876V45.3291C198.298 46.9706 198.729 47.3961 200.385 47.3961C200.781 47.3961 201.158 47.3789 201.543 47.3271C201.756 47.2984 201.943 47.4651 201.943 47.6808V50.7972C201.943 50.9783 201.808 51.1307 201.629 51.1508C200.85 51.2457 199.902 51.2715 199.028 51.2715C195.981 51.2715 193.328 50.5816 193.328 47.0051V36.7905C193.328 36.595 193.17 36.434 192.971 36.434H190.669C190.473 36.434 190.312 36.2759 190.312 36.0775V33.5073C190.312 33.3118 190.471 33.1509 190.669 33.1509H192.971C193.167 33.1509 193.328 32.9927 193.328 32.7944V28.1542C193.328 27.9587 193.486 27.7977 193.684 27.7977H197.941C198.137 27.7977 198.298 27.9559 198.298 28.1542V32.7944C198.298 32.9899 198.456 33.1509 198.654 33.1509V33.148Z" fill="#231916"/>
<path d="M207.741 45.2572C207.922 45.2572 208.074 45.3952 208.095 45.5763C208.293 47.491 210.021 48.2644 211.866 48.2644C213.315 48.2644 215.062 47.7354 215.062 45.9845C215.062 44.4637 213.053 43.9692 209.494 43.1757C206.66 42.549 203.794 41.5571 203.794 38.3832C203.794 33.7546 207.781 32.5672 211.636 32.5672C215.491 32.5672 218.952 33.838 219.529 37.9405C219.561 38.1561 219.394 38.3516 219.176 38.3516H215.18C215.005 38.3516 214.855 38.2222 214.83 38.0497C214.568 36.3794 213.154 35.9079 211.504 35.9079C210.383 35.9079 208.736 36.1063 208.736 37.561C208.736 39.3463 211.535 39.6108 214.335 40.272C217.236 40.9333 220.001 41.9568 220.001 45.3291C220.001 50.0554 215.948 51.6079 211.831 51.6079C207.715 51.6079 203.823 50.1101 203.424 45.6568C203.403 45.4469 203.567 45.2629 203.777 45.2629H207.741V45.2572Z" fill="#231916"/>
<path d="M0.213352 2.13898V25.8629C0.213352 25.8629 -0.26669 26.757 0.213352 27.0301C0.693394 27.3033 1.80583 27.9357 2.8464 28.0364C3.05336 28.0565 4.5251 28.2894 4.98215 28.6085C5.4392 28.9276 6.02847 28.7925 6.05147 28.1744C6.07446 27.5562 6.05147 3.07908 6.05147 2.62197C6.05147 2.16485 5.99398 1.35125 4.95341 1.17875C3.99045 1.02063 3.09935 0.790635 2.15939 0.468643C1.21943 0.14665 0.733637 -0.183967 0.262218 0.120776C-0.0999688 0.353646 0.0610033 1.127 0.152987 1.54674C0.196105 1.74224 0.213352 1.93773 0.213352 2.13898Z" fill="#231916"/>
<path d="M18.6411 7.2937C18.8941 7.5237 19.1442 8.36893 18.9832 8.71392C18.8366 9.02728 18.7734 22.4273 18.7647 24.8768C18.7647 25.1154 18.9027 25.3281 19.1212 25.4201C19.6098 25.63 20.5124 25.9865 21.2886 26.113C22.4182 26.297 23.295 26.7081 23.6629 26.8921C24.0308 27.0761 24.6316 27.1221 24.6316 26.021V9.32915C24.6316 8.29993 23.7923 5.91661 21.4352 5.73549C19.0781 5.55437 18.4141 5.99136 18.3221 6.3306C18.1611 6.92571 18.6411 7.29083 18.6411 7.29083V7.2937Z" fill="#231916"/>
<path d="M37.0567 5.68661C37.3097 5.9166 37.4476 5.96548 37.3557 6.90558C37.3212 7.2477 37.1918 20.7139 37.1659 23.3186C37.1659 23.5831 37.324 23.8188 37.5741 23.9079C38.0772 24.0919 38.9539 24.388 39.707 24.5088C40.8367 24.6928 41.8744 25.0895 42.2394 25.2706C42.6045 25.4518 43.0472 25.515 43.0472 24.4168V7.41732C43.0472 6.77333 42.8028 6.22135 42.2021 5.44799C41.6933 4.78963 40.9315 4.21177 39.8478 4.1284C37.4908 3.9444 36.8584 4.30377 36.7693 4.64301C36.6083 5.23812 37.0567 5.68661 37.0567 5.68661Z" fill="#231916"/>
</g>
<defs>
<clipPath id="clip0_1271_1350">
<rect width="220" height="57.9845" fill="white"/>
</clipPath>
</defs>
</svg>
