<svg width="77" height="75" viewBox="0 0 77 75" fill="none" xmlns="http://www.w3.org/2000/svg">
<path d="M70.5731 69.335H34.0634V73.9078H29.3887V55.0923C29.3887 52.6893 31.3256 50.7524 33.7285 50.7524H70.7916C73.1945 50.7524 75.1314 52.6893 75.1314 55.0923V73.9078H70.5586V69.335H70.5731Z" stroke="#999999" stroke-width="1.5" stroke-linecap="round" stroke-linejoin="round"/>
<path d="M33.9473 50.7524V39.2767C33.9473 38.1408 34.8793 37.2087 36.0152 37.2087H68.5346C69.6706 37.2087 70.6026 38.1408 70.6026 39.2767V50.7524" stroke="#999999" stroke-width="1.5" stroke-linecap="round" stroke-linejoin="round"/>
<path d="M38.4473 50.7524V44.7816C38.4473 43.7476 39.2774 42.9175 40.3113 42.9175H48.0589C49.0929 42.9175 49.923 43.7476 49.923 44.7816V50.7524" stroke="#999999" stroke-width="1.5" stroke-linecap="round" stroke-linejoin="round"/>
<path d="M54.5098 50.7524V44.7816C54.5098 43.7476 55.3399 42.9175 56.3738 42.9175H64.1214C65.1554 42.9175 65.9855 43.7476 65.9855 44.7816V50.7524" stroke="#999999" stroke-width="1.5" stroke-linecap="round" stroke-linejoin="round"/>
<path d="M29.3887 60.8591H75.1459" stroke="#999999" stroke-width="1.5" stroke-linecap="round" stroke-linejoin="round"/>
<path d="M1.0918 73.9077H19.019" stroke="#999999" stroke-width="1.5" stroke-linecap="round" stroke-linejoin="round"/>
<path d="M9.1015 73.9078V18.0583C9.1015 8.69423 16.7034 1.09229 26.0821 1.09229C35.4607 1.09229 43.0481 8.69423 43.0481 18.0583V18.4078" stroke="#999999" stroke-width="1.5" stroke-linecap="round" stroke-linejoin="round"/>
<path d="M43.195 18.4807C48.2921 18.4807 52.428 22.6166 52.428 27.7137V30.1166H33.9766V27.7137C33.9766 22.6166 38.1125 18.4807 43.2096 18.4807H43.195Z" stroke="#999999" stroke-width="1.5" stroke-linecap="round" stroke-linejoin="round"/>
</svg>
