<svg width="75" height="75" viewBox="0 0 75 75" fill="none" xmlns="http://www.w3.org/2000/svg">
<g clip-path="url(#clip0_6_1155)">
<path d="M25.2666 1.09229H1.0918V8.19908H25.2666V1.09229Z" stroke="#999999" stroke-width="1.5" stroke-linecap="round" stroke-linejoin="round"/>
<path d="M72.8297 21.4224C72.1598 21.0437 71.3442 21.0437 70.6889 21.4224L49.5869 33.7719V23.2719C49.5869 22.5146 49.1792 21.801 48.5093 21.4224C47.8394 21.0437 47.0238 21.0437 46.3685 21.4224L25.2666 33.7719V12.4661H1.0918V71.767C1.0918 72.9466 2.05296 73.8932 3.21801 73.8932H71.7665C72.9462 73.8932 73.8928 72.9321 73.8928 71.767V23.2719C73.8928 22.5146 73.485 21.801 72.8151 21.4224H72.8297ZM33.8005 58.9078C33.8005 60.0874 32.8394 61.034 31.6743 61.034H23.1403C21.9607 61.034 21.0141 60.0729 21.0141 58.9078V50.3738C21.0141 49.1942 21.9753 48.2476 23.1403 48.2476H31.6743C32.8539 48.2476 33.8005 49.2088 33.8005 50.3738V58.9078ZM58.1209 58.9078C58.1209 60.0874 57.1598 61.034 55.9947 61.034H47.4607C46.2811 61.034 45.3345 60.0729 45.3345 58.9078V50.3738C45.3345 49.1942 46.2957 48.2476 47.4607 48.2476H55.9947C57.1743 48.2476 58.1209 49.2088 58.1209 50.3738V58.9078Z" stroke="#999999" stroke-width="1.5" stroke-linecap="round" stroke-linejoin="round"/>
</g>
<defs>
<clipPath id="clip0_6_1155">
<rect width="75" height="75" fill="white"/>
</clipPath>
</defs>
</svg>
