<svg width="15" height="15" viewBox="0 0 15 15" fill="none" xmlns="http://www.w3.org/2000/svg">
<g clip-path="url(#clip0_6_560)">
<path d="M10.314 0H4.686C2.1 0 0 2.1 0 4.686V10.311C0 12.9 2.1 14.997 4.686 14.997H10.311C12.9 14.997 14.997 12.897 14.997 10.311V4.686C14.997 2.097 12.897 0 10.311 0H10.314ZM13.593 10.314C13.593 12.123 12.12 13.596 10.311 13.596H4.686C2.877 13.596 1.404 12.123 1.404 10.314V4.686C1.404 2.877 2.877 1.404 4.686 1.404H10.311C12.12 1.404 13.593 2.877 13.593 4.686V10.311V10.314Z" fill="white"/>
<path d="M7.5 3.75C5.43 3.75 3.75 5.43 3.75 7.5C3.75 9.57 5.43 11.25 7.5 11.25C9.57 11.25 11.25 9.57 11.25 7.5C11.25 5.43 9.57 3.75 7.5 3.75ZM7.5 9.843C6.207 9.843 5.157 8.79 5.157 7.5C5.157 6.21 6.21 5.157 7.5 5.157C8.79 5.157 9.843 6.207 9.843 7.5C9.843 8.793 8.79 9.843 7.5 9.843Z" fill="white"/>
<path d="M11.5322 3.9688C11.8089 3.9688 12.0333 3.74449 12.0333 3.4678C12.0333 3.1911 11.8089 2.9668 11.5322 2.9668C11.2556 2.9668 11.0312 3.1911 11.0312 3.4678C11.0312 3.74449 11.2556 3.9688 11.5322 3.9688Z" fill="white"/>
</g>
<defs>
<clipPath id="clip0_6_560">
<rect width="15" height="15" fill="white"/>
</clipPath>
</defs>
</svg>
