<svg width="16" height="15" viewBox="0 0 16 15" fill="none" xmlns="http://www.w3.org/2000/svg">
<g clip-path="url(#clip0_6_556)">
<path d="M16 9.195V15H12.5688V9.585C12.5688 8.226 12.0734 7.296 10.8318 7.296C9.88379 7.296 9.3211 7.92 9.07339 8.526C8.98165 8.742 8.96024 9.042 8.96024 9.345V14.997H5.52905C5.52905 14.997 5.57492 5.826 5.52905 4.875H8.96024V6.309C8.96024 6.309 8.94495 6.33 8.93884 6.342H8.96024V6.309C9.4159 5.622 10.2294 4.638 12.052 4.638C14.3089 4.638 16 6.084 16 9.192V9.195ZM1.9419 0C0.767584 0 0 0.756 0 1.749C0 2.742 0.746177 3.498 1.89602 3.498H1.91743C3.11315 3.498 3.85627 2.721 3.85627 1.749C3.83486 0.756 3.11315 0 1.93884 0H1.9419ZM0.204893 15H3.63303V4.878H0.204893V15Z" fill="white"/>
</g>
<defs>
<clipPath id="clip0_6_556">
<rect width="16" height="15" fill="white"/>
</clipPath>
</defs>
</svg>
