<svg width="27" height="27" viewBox="0 0 27 27" fill="none" xmlns="http://www.w3.org/2000/svg">
<g clip-path="url(#clip0_21_785)">
<g clip-path="url(#clip1_21_785)">
<g clip-path="url(#clip2_21_785)">
<mask id="mask0_21_785" style="mask-type:luminance" maskUnits="userSpaceOnUse" x="0" y="0" width="27" height="27">
<path d="M27 0H0V27H27V0Z" fill="white"/>
</mask>
<g mask="url(#mask0_21_785)">
<path fill-rule="evenodd" clip-rule="evenodd" d="M16.773 25.3446C16.2847 25.3446 15.8892 25.2953 15.6452 25.2558C14.2245 25.019 12.877 24.3181 11.7443 23.2324L3.72308 15.1238C0.954937 12.3254 0.954937 7.77513 3.72308 4.97684C4.20641 4.48824 4.84597 4.22174 5.52946 4.22174C6.21295 4.22174 6.8525 4.48824 7.33583 4.97684L8.94204 6.60053C9.42536 7.08913 9.689 7.73565 9.689 8.42659C9.689 9.11752 9.42048 9.76404 8.94204 10.2526C8.56612 10.6326 8.36107 11.1361 8.36107 11.674C8.36107 12.2119 8.56612 12.7153 8.94204 13.0954L13.7607 17.9665C14.1366 18.3464 14.6346 18.5537 15.1667 18.5537C15.6989 18.5537 16.1968 18.3464 16.5727 17.9665C17.056 17.4779 17.6956 17.2114 18.3791 17.2114C19.0627 17.2114 19.7021 17.4828 20.1854 17.9665L21.7917 19.5901C22.275 20.0787 22.5387 20.7252 22.5387 21.4162C22.5387 22.1071 22.2702 22.7537 21.7917 23.2423C20.4491 24.5994 18.6672 25.3446 16.773 25.3446Z" stroke="white" stroke-width="2.59615" stroke-linecap="round" stroke-linejoin="round"/>
<path d="M14.5426 1.74423C14.9673 1.685 15.3969 1.6554 15.8412 1.6554C21.0944 1.6554 25.3515 5.95894 25.3515 11.2693C25.3515 11.5752 25.3369 11.8763 25.3125 12.1725" stroke="white" stroke-width="2.59615" stroke-linecap="round" stroke-linejoin="round"/>
<path d="M14.9767 6.44261C15.2549 6.39325 15.5478 6.36365 15.8408 6.36365C18.5211 6.36365 20.6936 8.55984 20.6936 11.2693C20.6936 11.5802 20.6643 11.8813 20.6105 12.1725" stroke="white" stroke-width="2.59615" stroke-linecap="round" stroke-linejoin="round"/>
</g>
</g>
</g>
</g>
<defs>
<clipPath id="clip0_21_785">
<rect width="27" height="27" fill="white"/>
</clipPath>
<clipPath id="clip1_21_785">
<rect width="27" height="27" fill="white"/>
</clipPath>
<clipPath id="clip2_21_785">
<rect width="27" height="27" fill="white"/>
</clipPath>
</defs>
</svg>
