<svg width="77" height="75" viewBox="0 0 77 75" fill="none" xmlns="http://www.w3.org/2000/svg">
<g clip-path="url(#clip0_6_1184)">
<path d="M72.7332 64.2222H3.82627C2.32793 64.2222 1.11328 65.4368 1.11328 66.9352V71.1751C1.11328 72.6735 2.32793 73.8881 3.82627 73.8881H72.7332C74.2315 73.8881 75.4462 72.6735 75.4462 71.1751V66.9352C75.4462 65.4368 74.2315 64.2222 72.7332 64.2222Z" stroke="#999999" stroke-width="1.5" stroke-linecap="round" stroke-linejoin="round"/>
<path d="M1.15636 27.1595L38.2783 1.11182L75.4003 27.1595" stroke="#999999" stroke-width="1.5" stroke-linecap="round" stroke-linejoin="round"/>
<path d="M12.4961 27.1594V64.2221" stroke="#999999" stroke-width="1.5" stroke-linecap="round" stroke-linejoin="round"/>
<path d="M19.1526 27.1594V64.2221" stroke="#999999" stroke-width="1.5" stroke-linecap="round" stroke-linejoin="round"/>
<path d="M34.957 27.1594V64.2221" stroke="#999999" stroke-width="1.5" stroke-linecap="round" stroke-linejoin="round"/>
<path d="M41.5996 27.1594V64.2221" stroke="#999999" stroke-width="1.5" stroke-linecap="round" stroke-linejoin="round"/>
<path d="M57.4023 27.1594V64.2221" stroke="#999999" stroke-width="1.5" stroke-linecap="round" stroke-linejoin="round"/>
<path d="M64.0588 27.1594V64.2221" stroke="#999999" stroke-width="1.5" stroke-linecap="round" stroke-linejoin="round"/>
<path d="M1.11328 27.1594H75.4462" stroke="#999999" stroke-width="1.5" stroke-linecap="round" stroke-linejoin="round"/>
</g>
<defs>
<clipPath id="clip0_6_1184">
<rect width="76.5566" height="75" fill="white"/>
</clipPath>
</defs>
</svg>
