<svg width="93" height="75" viewBox="0 0 93 75" fill="none" xmlns="http://www.w3.org/2000/svg">
<g clip-path="url(#clip0_6_1140)">
<path d="M23.1403 11.8107H91.7908L77.8248 52.7913H27.3782L10.6889 1.09229H1.0918" stroke="#999999" stroke-width="1.5" stroke-linecap="round" stroke-linejoin="round"/>
<path d="M29.1254 52.7913H24.6399C22.0914 52.7913 20.0234 54.8592 20.0234 57.4078C20.0234 59.9563 22.0914 62.0243 24.6399 62.0243H80.1982" stroke="#999999" stroke-width="1.5" stroke-linecap="round" stroke-linejoin="round"/>
<path d="M37.3402 73.9079C40.6217 73.9079 43.2819 71.2477 43.2819 67.9662C43.2819 64.6846 40.6217 62.0244 37.3402 62.0244C34.0586 62.0244 31.3984 64.6846 31.3984 67.9662C31.3984 71.2477 34.0586 73.9079 37.3402 73.9079Z" stroke="#999999" stroke-width="1.5" stroke-linecap="round" stroke-linejoin="round"/>
<path d="M66.7582 73.9079C70.0397 73.9079 72.6999 71.2477 72.6999 67.9662C72.6999 64.6846 70.0397 62.0244 66.7582 62.0244C63.4766 62.0244 60.8164 64.6846 60.8164 67.9662C60.8164 71.2477 63.4766 73.9079 66.7582 73.9079Z" stroke="#999999" stroke-width="1.5" stroke-linecap="round" stroke-linejoin="round"/>
</g>
<defs>
<clipPath id="clip0_6_1140">
<rect width="92.8835" height="75" fill="white"/>
</clipPath>
</defs>
</svg>
