<svg width="27" height="27" viewBox="0 0 27 27" fill="none" xmlns="http://www.w3.org/2000/svg">
<g clip-path="url(#clip0_21_796)">
<g clip-path="url(#clip1_21_796)">
<g clip-path="url(#clip2_21_796)">
<mask id="mask0_21_796" style="mask-type:luminance" maskUnits="userSpaceOnUse" x="0" y="0" width="27" height="27">
<path d="M27 0H0V27H27V0Z" fill="white"/>
</mask>
<g mask="url(#mask0_21_796)">
<path fill-rule="evenodd" clip-rule="evenodd" d="M23.0661 3.9258C20.5267 1.3932 17.1517 0 13.5543 0C6.14771 0 0.113947 5.9994 0.113947 13.3758C0.113947 15.7356 0.732516 18.036 1.90997 20.0664L0 27L7.1244 25.137C9.08863 26.2008 11.297 26.7624 13.5488 26.7678H13.5543C20.9662 26.7678 26.9946 20.7684 27 13.3866C27 9.8118 25.6055 6.453 23.0661 3.9204V3.9258ZM13.5543 24.5106C11.5466 24.5106 9.5824 23.976 7.86777 22.9608L7.46081 22.7178L3.23392 23.8194L4.36254 19.7154L4.09666 19.2942C2.9789 17.523 2.38746 15.4764 2.38746 13.3758C2.38746 7.2468 7.40113 2.2572 13.5651 2.2572C16.5494 2.2572 19.3547 3.4182 21.4654 5.5188C23.5762 7.6194 24.7373 10.4166 24.7373 13.3866C24.7373 19.521 19.7237 24.5052 13.5651 24.5052L13.5543 24.5106ZM19.6857 16.1784C19.3493 16.011 17.6998 15.201 17.3905 15.093C17.0812 14.9796 16.8587 14.9256 16.6363 15.2604C16.4138 15.5952 15.7681 16.3458 15.5728 16.5726C15.3774 16.794 15.1821 16.821 14.8457 16.6536C14.5092 16.4862 13.4295 16.1352 12.1435 14.9958C11.1451 14.1102 10.4723 13.014 10.2769 12.6792C10.0816 12.3444 10.2769 12.1824 10.4234 11.9988C10.787 11.5506 11.1505 11.0808 11.2645 10.854C11.3784 10.6326 11.3187 10.4382 11.2373 10.2708C11.1559 10.1034 10.4831 8.4564 10.201 7.7868C9.92966 7.1334 9.65293 7.2252 9.44674 7.2144C9.25141 7.2036 9.02894 7.2036 8.80104 7.2036C8.57315 7.2036 8.21503 7.2846 7.90575 7.6194C7.59646 7.9542 6.7283 8.7642 6.7283 10.4058C6.7283 12.0474 7.93288 13.6404 8.10109 13.8618C8.26929 14.0832 10.4723 17.4636 13.8418 18.9108C14.6449 19.2564 15.2689 19.4616 15.7572 19.6128C16.5603 19.8666 17.2928 19.8288 17.8734 19.7478C18.5191 19.6506 19.8593 18.9378 20.1415 18.1602C20.4236 17.3772 20.4236 16.7076 20.3368 16.5726C20.2554 16.4322 20.0275 16.3512 19.6911 16.1838L19.6857 16.1784Z" fill="white"/>
</g>
</g>
</g>
</g>
<defs>
<clipPath id="clip0_21_796">
<rect width="27" height="27" fill="white"/>
</clipPath>
<clipPath id="clip1_21_796">
<rect width="27" height="27" fill="white"/>
</clipPath>
<clipPath id="clip2_21_796">
<rect width="27" height="27" fill="white"/>
</clipPath>
</defs>
</svg>
