<svg width="18" height="17" viewBox="0 0 18 17" fill="none" xmlns="http://www.w3.org/2000/svg">
<g clip-path="url(#clip0_21_741)">
<path d="M15.1958 14.3656C14.9995 14.7732 14.5569 15.1276 13.8681 15.4289C13.1825 15.7301 12.5717 15.8807 12.0356 15.8807C11.886 15.8807 11.7271 15.8689 11.5588 15.8483C11.3905 15.8246 11.2471 15.804 11.1318 15.7833C11.0134 15.7597 10.8606 15.7213 10.6674 15.6651C10.4742 15.6061 10.3371 15.5618 10.2529 15.5322C10.1688 15.4997 10.0129 15.4466 9.78854 15.3668C9.56415 15.2871 9.4239 15.2369 9.3678 15.2192C7.83444 14.6875 6.33225 13.7276 4.87057 12.3395C3.40578 10.9514 2.39289 9.53072 1.8319 8.0776C1.8132 8.02444 1.76334 7.89153 1.67919 7.67888C1.59504 7.46623 1.53583 7.32151 1.50466 7.24176C1.4735 7.16202 1.42675 7.03206 1.36442 6.84895C1.30208 6.66583 1.26157 6.52111 1.23664 6.40887C1.21482 6.29664 1.18989 6.16373 1.16807 6.00424C1.14314 5.84475 1.13379 5.69413 1.13379 5.55236C1.13379 5.04731 1.29273 4.46842 1.61063 3.8157C1.92852 3.16593 2.30251 2.74653 2.7326 2.56046C3.22813 2.36553 3.70185 2.26807 4.15064 2.26807C4.25349 2.26807 4.32829 2.27693 4.37504 2.29465C4.42178 2.31237 4.4997 2.39211 4.60566 2.53388C4.71474 2.67565 4.83006 2.85581 4.95784 3.07142C5.08562 3.28998 5.20716 3.49968 5.33183 3.70347C5.45337 3.90726 5.56869 4.1081 5.684 4.30894C5.7962 4.50977 5.86788 4.63382 5.89281 4.68698C5.92086 4.73129 5.98319 4.81398 6.07669 4.94098C6.17019 5.06503 6.24187 5.17726 6.2855 5.27473C6.33225 5.3722 6.35718 5.46375 6.35718 5.55531C6.35718 5.68822 6.26057 5.85066 6.07046 6.03969C5.87723 6.22871 5.66842 6.40592 5.43779 6.56541C5.20716 6.7249 4.99835 6.8962 4.80512 7.07636C4.61501 7.25653 4.5184 7.40716 4.5184 7.52234C4.5184 7.58437 4.53398 7.6582 4.56826 7.7409C4.60255 7.82655 4.6306 7.89448 4.65865 7.94765C4.68669 8.00081 4.73033 8.0776 4.79266 8.17507C4.85187 8.27253 4.89239 8.33456 4.91109 8.36114C5.42532 9.23833 6.01748 9.99442 6.68754 10.6294C7.35761 11.2644 8.15234 11.8256 9.08108 12.3129C9.10913 12.3306 9.17457 12.369 9.27742 12.4252C9.38027 12.4813 9.4613 12.5226 9.51428 12.5522C9.57038 12.5787 9.64206 12.6083 9.73244 12.6378C9.82282 12.6703 9.89762 12.6851 9.96619 12.6851C10.1158 12.6851 10.3215 12.5374 10.5833 12.245C10.8451 11.9526 11.11 11.6602 11.3842 11.3737C11.6554 11.0872 11.8735 10.9425 12.0449 10.9425C12.1384 10.9425 12.2382 10.9661 12.341 11.0075C12.4439 11.0518 12.5592 11.1197 12.6932 11.2083C12.8241 11.2969 12.9114 11.353 12.9612 11.3826L13.7061 11.7665C14.2016 12.0146 14.6161 12.2332 14.9496 12.4252C15.28 12.6171 15.4607 12.7471 15.4888 12.818C15.5075 12.8623 15.5168 12.9332 15.5168 13.0306C15.5168 13.4559 15.414 13.9049 15.2083 14.3745L15.1958 14.3656Z" stroke="white" stroke-width="1.5" stroke-miterlimit="10" stroke-linecap="round"/>
<path d="M9.88477 1.11621C13.472 1.58286 16.3205 4.24987 16.8659 7.63459" stroke="white" stroke-width="1.5" stroke-miterlimit="10" stroke-linecap="round"/>
</g>
<defs>
<clipPath id="clip0_21_741">
<rect width="18" height="17" fill="white"/>
</clipPath>
</defs>
</svg>
