<svg width="254" height="181" viewBox="0 0 254 181" fill="none" xmlns="http://www.w3.org/2000/svg">
<g clip-path="url(#clip0_6_1480)">
<path d="M2.07873 147.78C0.935428 147.78 0 146.849 0 145.711V131.429C0 121.35 1.72535 113.071 5.19682 106.592C8.6683 100.114 13.6157 94.8361 20.0597 90.7587C26.5038 86.6813 34.299 83.2662 43.4455 80.5135L56.1257 76.5809C61.8006 74.7802 66.6857 72.5863 70.7808 69.9577C74.8758 67.3291 78.0147 64.0589 80.239 60.1264C82.4632 56.1938 83.5649 51.599 83.5649 46.3625V45.5346C83.5649 37.4005 80.8002 31.0049 75.25 26.3894C69.6998 21.7738 62.4243 19.4557 53.4234 19.4557C44.4225 19.4557 36.6272 21.9394 30.8691 26.9068C25.1111 31.8742 22.2424 39.1805 22.2424 48.8462V50.0881C22.2424 51.2264 21.307 52.1578 20.1637 52.1578H2.70235C1.55905 52.1578 0.623619 51.2264 0.623619 50.0881V49.0532C0.623619 38.5595 2.91022 29.701 7.48343 22.4568C12.0566 15.2127 18.3552 9.66575 26.3999 5.79531C34.4446 1.92487 43.4455 0 53.4234 0C63.4013 0 72.2982 1.86278 80.135 5.58834C87.9718 9.31389 94.1249 14.5504 98.6357 21.3185C103.147 28.0866 105.392 36.0137 105.392 45.1206V46.9834C105.392 56.3594 103.521 64.1624 99.779 70.3717C96.0373 76.5809 90.8821 81.6932 84.2925 85.6878C77.7029 89.6825 70.1156 93.0769 61.5304 95.8296L49.2659 99.5552C42.7595 101.48 37.5211 103.591 33.5715 105.868C29.6219 108.145 26.7117 110.877 24.8408 114.043C22.97 117.21 22.0345 121.288 22.0345 126.255V128.325H102.066C103.209 128.325 104.144 129.256 104.144 130.395V145.711C104.144 146.849 103.209 147.78 102.066 147.78H2.07873Z" fill="url(#paint0_linear_6_1480)"/>
<path d="M122.458 137.225C122.458 138.363 122.624 139.377 122.978 140.226C123.393 141.261 124.121 142.068 125.327 142.068C125.742 142.068 126.22 141.964 126.719 141.757C131.417 140.205 139.254 132.692 146.343 126.421C153.972 119.839 161.746 113.464 165.072 113.464H165.363C165.799 113.526 166.194 113.754 166.444 114.106C166.673 114.457 166.797 114.933 166.797 115.554C166.797 116.941 166.278 118.928 165.488 121.329C162.848 129.173 158.607 135.838 154.761 143.082C159.875 138.943 165.217 135.465 170.913 133.147C171.038 133.085 171.163 133.023 171.267 133.023C171.703 133.023 172.056 133.52 172.056 134.058C172.056 134.368 171.89 134.72 171.558 134.907C165.051 137.535 158.753 141.799 153.119 146.704C144.285 162.89 133.6 179.365 129.63 180.814C129.276 180.938 128.964 181 128.673 181C128.362 181 128.071 180.897 127.842 180.752C127.468 180.462 127.301 179.965 127.301 179.324C127.301 178.661 127.468 177.875 127.8 176.943C128.382 175.308 129.442 173.114 130.981 170.631C135.201 163.614 143.682 152.52 152.953 144.448C156.819 137.308 161.205 128.615 163.783 120.998C164.552 118.763 164.968 116.983 164.968 115.948C164.968 115.534 164.906 115.244 164.781 115.058C164.719 114.996 164.677 114.954 164.594 114.954H164.407C161.642 114.954 154.637 120.956 147.195 127.352C140.023 133.52 132.457 139.998 127.509 142.027C126.47 142.441 125.514 142.689 124.682 142.689C123.352 142.689 122.354 142.089 121.793 140.702C121.377 139.729 121.19 138.549 121.19 137.245C121.19 125.841 135.263 104.461 135.284 104.398C135.512 104.047 135.907 103.86 136.323 103.86C136.76 103.86 137.175 104.109 137.175 104.626C137.175 104.688 137.175 104.75 137.134 104.854C137.071 104.916 122.458 126.441 122.458 137.225ZM151.041 148.629C143.1 156.018 135.824 165.063 132.082 171.293C130.586 173.735 129.546 175.805 129.006 177.357C128.653 178.268 128.507 178.992 128.507 179.386C128.507 179.572 128.549 179.675 128.611 179.737H128.673C128.673 179.737 128.964 179.696 129.193 179.634C132.685 178.33 142.809 163.469 151.061 148.629H151.041ZM169.167 167.422C169.167 167.422 169.167 167.381 169.188 167.381C169.188 167.443 169.188 167.485 169.167 167.485V167.422Z" fill="url(#paint1_linear_6_1480)"/>
<path d="M176.692 132.485C176.692 135.134 172.41 136.852 171.516 137.204C171.516 137.39 171.474 137.618 171.474 137.846C171.474 138.611 171.599 139.481 171.973 140.06C172.389 140.702 173.096 140.971 173.969 140.971C178.355 140.971 187.106 134.389 187.148 134.368C187.273 134.265 187.397 134.244 187.522 134.244C187.938 134.244 188.291 134.617 188.291 135.01C188.291 135.176 188.187 135.321 188.042 135.445C187.979 135.486 179.436 141.613 174.239 141.613C172.867 141.613 171.724 141.199 171.038 140.122C170.435 139.232 170.206 138.28 170.206 137.37C170.206 135.59 171.1 133.913 172.14 132.692C172.701 132.03 173.345 131.533 173.927 131.202C174.364 130.953 174.78 130.829 175.195 130.829C175.424 130.829 175.632 130.871 175.84 130.953C176.276 131.14 176.609 131.554 176.671 132.154C176.671 132.278 176.692 132.381 176.692 132.506V132.485ZM174.759 132.485C174.759 132.485 174.738 132.381 174.655 132.381C174.01 132.485 173.408 133.644 171.952 135.548C173.99 133.81 174.738 132.775 174.738 132.485H174.759Z" fill="url(#paint2_linear_6_1480)"/>
<path d="M192.033 135.921C189.518 138.301 186.67 140.95 185.298 140.95C185.256 140.95 185.194 140.909 185.132 140.909C184.778 140.847 184.529 140.661 184.3 140.412C184.051 140.102 183.947 139.708 183.947 139.274C183.947 139.108 183.947 138.963 183.968 138.798C184.03 138.301 184.217 137.659 184.55 137.018C185.464 134.989 187.439 132.63 189.892 131.905C190.516 131.719 191.098 131.657 191.597 131.657C192.574 131.657 193.322 131.968 193.779 132.444C194.735 131.657 195.837 130.871 196.44 130.871C196.544 130.871 196.627 130.912 196.689 130.933C197.105 130.995 197.334 131.409 197.334 132.092C197.334 132.858 197.084 133.934 196.544 135.279C196.191 136.231 196.045 137.018 196.045 137.659C196.045 139.295 197.084 139.895 198.643 139.895C202.676 139.895 210.16 135.652 211.282 134.265C211.469 133.892 211.698 133.768 211.885 133.768C212.176 133.768 212.363 134.017 212.363 134.368C212.363 134.555 212.301 134.741 212.134 134.927C211.76 135.465 203.237 140.433 198.29 140.433C196.253 140.433 194.839 139.584 194.839 137.204C194.839 136.562 194.922 135.838 195.151 134.969C195.338 133.768 195.754 132.651 195.754 132.402V132.361C195.754 132.361 195.276 132.795 194.548 133.499C194.673 133.872 194.673 134.265 194.673 134.451V134.575C194.382 134.989 194.008 135.176 193.654 135.176C193.53 135.176 193.405 135.134 193.28 135.072L193.176 134.782C192.74 135.217 192.532 135.383 192.012 135.879L192.033 135.921ZM191.493 133.851C189.975 133.851 187.294 137.287 187.294 138.032C187.294 138.135 187.356 138.198 187.481 138.198C188.083 138.198 189.996 136.687 191.991 134.017C191.825 133.892 191.68 133.851 191.493 133.851Z" fill="url(#paint3_linear_6_1480)"/>
<path d="M212.945 134.989C214.192 132.361 216.001 130.684 217.518 130.684C218.184 130.684 218.786 130.995 219.306 131.657C220.491 134.244 225.189 134.72 228.702 134.72C230.261 134.72 231.591 134.617 232.257 134.596C232.631 134.555 232.922 134.286 232.984 134.286C233.109 134.244 233.234 134.224 233.296 134.224C233.483 134.224 233.545 134.327 233.545 134.41C233.545 134.638 233.317 134.948 233.067 135.01C232.901 135.176 230.49 135.548 227.663 135.548C224.191 135.548 220.117 134.989 218.516 132.775C218.329 132.526 218.1 132.402 217.872 132.402C215.627 132.402 211.469 142.296 211.428 142.337V142.399C211.428 142.772 210.991 142.937 210.513 142.937C209.952 142.937 209.307 142.71 209.307 142.399C209.307 142.337 209.349 142.296 209.349 142.275L212.051 131.015C212.28 130.415 212.779 130.188 213.299 130.188C213.901 130.188 214.504 130.539 214.504 131.098V131.16L212.945 134.989Z" fill="url(#paint4_linear_6_1480)"/>
<path d="M238.95 129.629C238.95 129.442 238.888 129.318 238.701 129.318C238.534 129.318 238.326 129.38 238.035 129.546C237.391 129.856 236.289 130.85 235.312 132.133C234.647 133.023 234.398 133.851 234.398 134.638C234.398 136.687 236.268 138.549 237.786 141.012C240.696 138.922 243.211 137.37 246.454 135.797C248.304 134.886 250.716 133.706 252.898 132.92C253.626 132.982 254.021 133.582 254.021 134.162C254.021 134.513 253.855 134.865 253.543 135.052C251.36 135.3 249.406 136.148 247.598 137.038C244.334 138.611 241.278 139.978 238.326 142.13C238.908 143.165 239.158 144.407 239.158 145.649C239.158 150.388 235.562 155.77 231.321 155.77C230.905 155.77 230.49 155.708 230.074 155.604C228.806 155.314 228.286 154.093 228.286 152.831C228.286 152.355 228.39 151.879 228.515 151.444C229.18 149.333 231.841 145.649 237.225 141.654C236.019 139.626 232.755 137.08 232.755 134.099C232.755 133.209 233.046 132.299 233.774 131.326C234.959 129.753 236.788 128.801 237.495 128.449C238.222 128.139 238.804 128.014 239.241 128.014C240.093 128.014 240.488 128.49 240.571 129.256C240.613 129.422 240.613 129.567 240.613 129.753C240.613 131.678 239.574 134.12 239.574 134.141C239.324 134.493 238.908 134.617 238.493 134.617C237.828 134.617 237.121 134.203 237.121 133.52C237.121 133.416 237.121 133.334 237.162 133.23C237.162 133.189 239.012 130.581 239.012 129.691L238.95 129.629ZM229.7 151.796C229.596 152.086 229.533 152.437 229.533 152.748C229.533 153.245 229.72 153.721 230.323 153.886C230.614 153.99 230.885 154.01 231.217 154.01C234.647 154.01 238.077 148.836 238.077 144.841C238.077 144.014 237.952 143.268 237.64 142.606C232.839 146.27 230.303 149.933 229.7 151.796Z" fill="url(#paint5_linear_6_1480)"/>
<path d="M179.457 53.7101C172.451 50.0467 164.656 48.2253 156.071 48.2253C154.533 48.2253 153.057 48.2874 151.623 48.3702C151.124 48.4116 150.666 48.4736 150.188 48.515C149.357 48.5978 148.546 48.6599 147.756 48.7634C128.673 51.3506 121.772 62.2789 121.772 62.2789V19.6627H197.375L180.226 2.58719C178.563 0.931389 176.297 0 173.948 0H102.045C100.901 0 99.9661 0.931389 99.9661 2.06975V77.6158C99.9661 78.7542 100.901 79.6855 102.045 79.6855H127.613C128.86 77.7607 130.419 75.753 132.29 73.6833C134.161 71.6135 136.656 69.8542 139.774 68.4054C142.892 66.9566 146.8 66.2321 151.519 66.2321C159.979 66.2321 166.943 68.9228 172.41 74.3042C177.877 79.6855 180.621 86.8676 180.621 95.8296V97.6924C180.621 104.274 179.228 109.883 176.505 114.561L201.45 95.6847C202.052 95.2294 202.427 94.4843 202.406 93.7185C202.156 84.4667 200.098 76.5188 196.211 69.8542C192.054 62.755 186.483 57.3736 179.477 53.7101H179.457Z" fill="url(#paint6_linear_6_1480)"/>
</g>
<defs>
<linearGradient id="paint0_linear_6_1480" x1="0" y1="73.8902" x2="105.392" y2="73.8902" gradientUnits="userSpaceOnUse">
<stop stop-color="#524B48"/>
<stop offset="1" stop-color="#231F20"/>
</linearGradient>
<linearGradient id="paint1_linear_6_1480" x1="123.331" y1="142.441" x2="251.381" y2="142.441" gradientUnits="userSpaceOnUse">
<stop stop-color="#231F20"/>
<stop offset="1" stop-color="#524B48"/>
</linearGradient>
<linearGradient id="paint2_linear_6_1480" x1="-0.00018717" y1="136.19" x2="2.07854" y2="136.19" gradientUnits="userSpaceOnUse">
<stop stop-color="#231F20"/>
<stop offset="1" stop-color="#524B48"/>
</linearGradient>
<linearGradient id="paint3_linear_6_1480" x1="-9.45827e-05" y1="135.921" x2="2.07864" y2="135.921" gradientUnits="userSpaceOnUse">
<stop stop-color="#231F20"/>
<stop offset="1" stop-color="#524B48"/>
</linearGradient>
<linearGradient id="paint4_linear_6_1480" x1="0.00012792" y1="136.542" x2="2.07886" y2="136.542" gradientUnits="userSpaceOnUse">
<stop stop-color="#231F20"/>
<stop offset="1" stop-color="#524B48"/>
</linearGradient>
<linearGradient id="paint5_linear_6_1480" x1="6.6932e-05" y1="141.861" x2="2.0788" y2="141.861" gradientUnits="userSpaceOnUse">
<stop stop-color="#231F20"/>
<stop offset="1" stop-color="#524B48"/>
</linearGradient>
<linearGradient id="paint6_linear_6_1480" x1="99.9453" y1="57.2701" x2="202.385" y2="57.2701" gradientUnits="userSpaceOnUse">
<stop stop-color="#524B48"/>
<stop offset="1" stop-color="#231F20"/>
</linearGradient>
<clipPath id="clip0_6_1480">
<rect width="254" height="181" fill="white"/>
</clipPath>
</defs>
</svg>
