<svg width="86" height="75" viewBox="0 0 86 75" fill="none" xmlns="http://www.w3.org/2000/svg">
<path d="M69.793 1.44226H80.5959C82.3699 1.44226 83.8122 2.88457 83.8122 4.65861V15.4615" stroke="#7D7D7D" stroke-width="2" stroke-linecap="round" stroke-linejoin="round"/>
<path d="M15.4606 1.44226H4.65775C2.88371 1.44226 1.44141 2.88457 1.44141 4.65861V15.4615" stroke="#7D7D7D" stroke-width="2" stroke-linecap="round" stroke-linejoin="round"/>
<path d="M69.793 73.5577H80.5959C82.3699 73.5577 83.8122 72.1154 83.8122 70.3413V59.5385" stroke="#7D7D7D" stroke-width="2" stroke-linecap="round" stroke-linejoin="round"/>
<path d="M15.4606 73.5577H4.65775C2.88371 73.5577 1.44141 72.1154 1.44141 70.3413V59.5385" stroke="#7D7D7D" stroke-width="2" stroke-linecap="round" stroke-linejoin="round"/>
<path d="M78.5038 37.5143C54.5904 63.6345 30.6769 63.6345 6.76343 37.5143C30.6769 11.3941 54.5904 11.3941 78.5038 37.5143Z" stroke="#7D7D7D" stroke-width="2" stroke-linecap="round" stroke-linejoin="round"/>
<path d="M62.22 37.5144C62.22 48.3317 53.4507 57.1009 42.6334 57.1009C31.8161 57.1009 23.0469 48.3317 23.0469 37.5144C23.0469 26.6971 31.8161 17.9279 42.6334 17.9279C53.4507 17.9279 62.22 26.6971 62.22 37.5144Z" stroke="#7D7D7D" stroke-width="2" stroke-linecap="round" stroke-linejoin="round"/>
<path d="M48.3601 37.5144C48.3601 40.6731 45.7928 43.2404 42.6342 43.2404C39.4755 43.2404 36.9082 40.6731 36.9082 37.5144C36.9082 34.3558 39.4755 31.7885 42.6342 31.7885C45.7928 31.7885 48.3601 34.3558 48.3601 37.5144Z" stroke="#7D7D7D" stroke-width="2" stroke-linecap="round" stroke-linejoin="round"/>
</svg>
