<svg width="42" height="52" viewBox="0 0 42 52" fill="none" xmlns="http://www.w3.org/2000/svg">
<g clip-path="url(#clip0_6_1385)">
<path d="M20.7799 38.9099C24.5741 38.9099 27.6499 35.8341 27.6499 32.0399C27.6499 28.2457 24.5741 25.1699 20.7799 25.1699C16.9857 25.1699 13.9099 28.2457 13.9099 32.0399C13.9099 35.8341 16.9857 38.9099 20.7799 38.9099Z" stroke="#7D7D7D" stroke-width="2" stroke-linecap="round" stroke-linejoin="round"/>
<path d="M34.2197 50.9999H7.42969C7.42969 44.3199 12.8397 38.9099 19.5197 38.9099H22.1297C28.8097 38.9099 34.2197 44.3199 34.2197 50.9999Z" stroke="#7D7D7D" stroke-width="2" stroke-linecap="round" stroke-linejoin="round"/>
<path d="M20.7797 1L23.0997 8.15H30.6197L24.5397 12.57L26.8597 19.72L20.7797 15.3L14.6897 19.72L17.0197 12.57L10.9297 8.15H18.4497L20.7797 1Z" stroke="#7D7D7D" stroke-width="2" stroke-linecap="round" stroke-linejoin="round"/>
<path d="M3.78906 11.6101L9.86906 15.1201" stroke="#7D7D7D" stroke-width="2" stroke-linecap="round" stroke-linejoin="round"/>
<path d="M9.86906 27.77L3.78906 31.29" stroke="#7D7D7D" stroke-width="2" stroke-linecap="round" stroke-linejoin="round"/>
<path d="M8.22 21.46H1" stroke="#7D7D7D" stroke-width="2" stroke-linecap="round" stroke-linejoin="round"/>
<path d="M37.5509 11.6101L31.4609 15.1201" stroke="#7D7D7D" stroke-width="2" stroke-linecap="round" stroke-linejoin="round"/>
<path d="M31.4609 27.77L37.5509 31.29" stroke="#7D7D7D" stroke-width="2" stroke-linecap="round" stroke-linejoin="round"/>
<path d="M33.1094 21.46H40.3294" stroke="#7D7D7D" stroke-width="2" stroke-linecap="round" stroke-linejoin="round"/>
</g>
<defs>
<clipPath id="clip0_6_1385">
<rect width="41.33" height="52" fill="white"/>
</clipPath>
</defs>
</svg>
