<svg width="43" height="52" viewBox="0 0 43 52" fill="none" xmlns="http://www.w3.org/2000/svg">
<g clip-path="url(#clip0_6_1358)">
<path d="M21.1991 8.76001C15.5991 8.76001 11.0391 13.32 11.0391 18.92C11.0391 24.52 15.5991 29.08 21.1991 29.08C26.7991 29.08 31.3591 24.52 31.3591 18.92C31.3591 13.32 26.7991 8.76001 21.1991 8.76001Z" stroke="#7D7D7D" stroke-width="2" stroke-linecap="round" stroke-linejoin="round"/>
<path d="M8.78 31.02L1 44.58L8.94 43.84L12.19 51L21.26 35.37" stroke="#7D7D7D" stroke-width="2" stroke-linecap="round" stroke-linejoin="round"/>
<path d="M34.0396 31.02L41.8496 44.58L33.9196 43.84L30.6596 51L21.5996 35.37" stroke="#7D7D7D" stroke-width="2" stroke-linecap="round" stroke-linejoin="round"/>
<path d="M36.1199 23.3201C35.9099 23.5301 35.8199 23.8301 35.8599 24.1301L36.5899 29.2601C36.6599 29.7801 36.3099 30.2601 35.7999 30.3501L30.6899 31.2501C30.3999 31.3001 30.1399 31.4901 29.9999 31.7501L27.5699 36.3301C27.3199 36.7901 26.7599 36.9801 26.2899 36.7501L21.6299 34.4701C21.3599 34.3401 21.0499 34.3401 20.7799 34.4701L16.1199 36.7501C15.6499 36.9801 15.0799 36.8001 14.8399 36.3301L12.4099 31.7501C12.2699 31.4901 12.0199 31.3001 11.7199 31.2501L6.60992 30.3501C6.09992 30.2601 5.73992 29.7801 5.81992 29.2601L6.54992 24.1301C6.58992 23.8301 6.48992 23.5401 6.28992 23.3201L2.68992 19.6001C2.32992 19.2201 2.32992 18.6301 2.68992 18.2501L6.28992 14.5201C6.49992 14.3101 6.59992 14.0101 6.54992 13.7101L5.81992 8.58007C5.74992 8.06007 6.09992 7.58007 6.60992 7.49007L11.7199 6.59007C12.0099 6.54007 12.2699 6.35007 12.4099 6.09007L14.8399 1.51007C15.0799 1.05007 15.6499 0.860073 16.1199 1.09007L20.7799 3.37007C21.0499 3.50007 21.3599 3.50007 21.6299 3.37007L26.2799 1.09007C26.7499 0.860073 27.3199 1.04007 27.5599 1.51007L29.9899 6.09007C30.1299 6.35007 30.3799 6.54007 30.6799 6.59007L35.7799 7.48007C36.2999 7.57007 36.6499 8.05007 36.5699 8.57007L35.8399 13.7001C35.7999 14.0001 35.8999 14.2901 36.0999 14.5101L39.6999 18.2401C40.0599 18.6201 40.0599 19.2101 39.6999 19.5901L36.0999 23.3201H36.1199Z" stroke="#7D7D7D" stroke-width="2" stroke-linecap="round" stroke-linejoin="round"/>
<path d="M16.24 18.8401L19.5 22.0301L26.01 15.6101" stroke="#7D7D7D" stroke-width="2" stroke-linecap="round" stroke-linejoin="round"/>
</g>
<defs>
<clipPath id="clip0_6_1358">
<rect width="42.85" height="52" fill="white"/>
</clipPath>
</defs>
</svg>
