<svg width="44" height="52" viewBox="0 0 44 52" fill="none" xmlns="http://www.w3.org/2000/svg">
<g clip-path="url(#clip0_6_1364)">
<path d="M22.1891 51H9.10907C8.65907 51 8.29907 50.64 8.29907 50.19V42.42L6.03907 49.22C5.68907 50.28 4.69907 50.99 3.57907 50.99C1.77907 50.99 0.529065 49.2 1.14907 47.51L3.67907 40.63C4.94907 37.17 8.24906 34.86 11.9391 34.86H26.5991C26.9291 34.86 27.2491 34.71 27.4491 34.45L30.4591 30.66C31.3291 29.56 32.9491 29.41 34.0091 30.33C34.9991 31.19 35.1491 32.68 34.3391 33.71L29.6491 39.71C29.4191 40 29.0691 40.17 28.6991 40.17H24.3191C23.5891 40.17 22.9891 40.76 22.9891 41.5V50.18C22.9891 50.63 22.6291 50.99 22.1791 50.99L22.1891 51Z" stroke="#7D7D7D" stroke-width="2" stroke-linecap="round" stroke-linejoin="round"/>
<path d="M31.3295 20.4201V11.8401C31.3295 10.5801 30.3095 9.56006 29.0495 9.56006C27.7895 9.56006 26.7695 10.5801 26.7695 11.8401C26.7695 13.1001 27.7895 14.1201 29.0495 14.1201H36.3695C37.6295 14.1201 38.6495 13.1001 38.6495 11.8401C38.6495 10.5801 37.6295 9.56006 36.3695 9.56006C35.1095 9.56006 34.0895 10.5801 34.0895 11.8401V20.4201" stroke="#7D7D7D" stroke-width="2" stroke-linecap="round" stroke-linejoin="round"/>
<path d="M16.3499 32.4501C19.9066 32.4501 22.7899 29.5668 22.7899 26.0101C22.7899 22.4534 19.9066 19.5701 16.3499 19.5701C12.7932 19.5701 9.90991 22.4534 9.90991 26.0101C9.90991 29.5668 12.7932 32.4501 16.3499 32.4501Z" stroke="#7D7D7D" stroke-width="2" stroke-linecap="round" stroke-linejoin="round"/>
<path d="M37.1608 20.4199H27.8908C26.7365 20.4199 25.8008 21.3556 25.8008 22.5099V23.3199C25.8008 24.4742 26.7365 25.4099 27.8908 25.4099H37.1608C38.3151 25.4099 39.2508 24.4742 39.2508 23.3199V22.5099C39.2508 21.3556 38.3151 20.4199 37.1608 20.4199Z" stroke="#7D7D7D" stroke-width="2" stroke-linecap="round" stroke-linejoin="round"/>
<path d="M28.7793 25.4199L30.4293 29.0399C30.5393 29.2899 30.7893 29.4399 31.0593 29.4399H34.0393C34.3093 29.4399 34.5593 29.2799 34.6693 29.0299L36.2693 25.4199" stroke="#7D7D7D" stroke-width="2" stroke-linecap="round" stroke-linejoin="round"/>
<path d="M37.9399 20.42L41.0499 15.11C41.7599 13.77 42.1599 12.24 42.1599 10.62C42.1599 5.31 37.8499 1 32.5399 1C27.2299 1 22.9199 5.31 22.9199 10.62C22.9199 12.24 23.3199 13.77 24.0299 15.11L27.1399 20.42" stroke="#7D7D7D" stroke-width="2" stroke-linecap="round" stroke-linejoin="round"/>
</g>
<defs>
<clipPath id="clip0_6_1364">
<rect width="43.15" height="52" fill="white"/>
</clipPath>
</defs>
</svg>
