<svg width="52" height="50" viewBox="0 0 52 50" fill="none" xmlns="http://www.w3.org/2000/svg">
<g clip-path="url(#clip0_6_1296)">
<path d="M0.700928 21.8141C12.358 21.8141 21.8141 12.358 21.8141 0.700928C21.8141 12.358 31.2631 21.8141 42.9272 21.8141V21.8491C31.2631 21.8491 21.8141 31.3052 21.8141 42.9623C21.8141 31.3052 12.358 21.8491 0.700928 21.8491V21.8141Z" stroke="#7D7D7D" stroke-width="2" stroke-linecap="round" stroke-linejoin="round"/>
<path d="M31.1641 39.2683C36.6947 39.2683 41.1809 34.7821 41.1809 29.2515C41.1809 34.7821 45.6671 39.2683 51.1977 39.2683V39.2823C45.6671 39.2823 41.1809 43.7685 41.1809 49.2991C41.1809 43.7685 36.6947 39.2823 31.1641 39.2823V39.2683Z" stroke="#7D7D7D" stroke-width="2" stroke-linecap="round" stroke-linejoin="round"/>
</g>
<defs>
<clipPath id="clip0_6_1296">
<rect width="51.8996" height="50" fill="white"/>
</clipPath>
</defs>
</svg>
