<svg width="53" height="52" viewBox="0 0 53 52" fill="none" xmlns="http://www.w3.org/2000/svg">
<g clip-path="url(#clip0_6_1380)">
<path d="M26.1591 38.08C36.3985 38.08 44.6991 29.7794 44.6991 19.54C44.6991 9.30064 36.3985 1 26.1591 1C15.9198 1 7.61914 9.30064 7.61914 19.54C7.61914 29.7794 15.9198 38.08 26.1591 38.08Z" stroke="#7D7D7D" stroke-width="2" stroke-linecap="round" stroke-linejoin="round"/>
<path d="M26.1606 10.74L27.9406 16.22C28.1806 16.97 28.8806 17.47 29.6606 17.47H35.4206L30.7606 20.85C30.1306 21.31 29.8606 22.13 30.1006 22.87L31.8806 28.35L27.2206 24.97C26.5906 24.51 25.7306 24.51 25.0906 24.97L20.4306 28.35L22.2106 22.87C22.4506 22.12 22.1906 21.31 21.5506 20.85L16.8906 17.47H22.6506C23.4306 17.47 24.1306 16.97 24.3706 16.22L26.1506 10.74H26.1606Z" stroke="#7D7D7D" stroke-width="2" stroke-linecap="round" stroke-linejoin="round"/>
<path d="M10.42 29.3501L1 42.1501L11.33 40.3601L13.12 51.0001L22.47 37.7201" stroke="#7D7D7D" stroke-width="2" stroke-linecap="round" stroke-linejoin="round"/>
<path d="M41.9291 29.3501L51.3491 42.1501L41.0191 40.3601L39.2191 51.0001L29.8691 37.7201" stroke="#7D7D7D" stroke-width="2" stroke-linecap="round" stroke-linejoin="round"/>
</g>
<defs>
<clipPath id="clip0_6_1380">
<rect width="52.35" height="52" fill="white"/>
</clipPath>
</defs>
</svg>
