<svg width="82" height="42" viewBox="0 0 82 42" fill="none" xmlns="http://www.w3.org/2000/svg">
<g clip-path="url(#clip0_6_1489)">
<path d="M75.6163 0H6.28371C2.81331 0 0 2.79579 0 6.24457V35.7554C0 39.2042 2.81331 42 6.28371 42H75.6163C79.0867 42 81.9 39.2042 81.9 35.7554V6.24457C81.9 2.79579 79.0867 0 75.6163 0Z" fill="#231F20"/>
<path d="M75.108 1.99268H6.77796C4.14982 1.99268 2.01929 4.10994 2.01929 6.72171V35.2783C2.01929 37.8901 4.14982 40.0074 6.77796 40.0074H75.108C77.7361 40.0074 79.8667 37.8901 79.8667 35.2783V6.72171C79.8667 4.10994 77.7361 1.99268 75.108 1.99268Z" stroke="#F2F2F3" stroke-width="0.3" stroke-miterlimit="10"/>
<path d="M32.3081 21.7789V15.9553L32.4211 16.7692L27.6765 10.1036H29.8652L33.4942 15.2677L33.0706 15.2116L36.3466 10.0896H38.4224L33.8755 16.9376L34.1297 15.8009V21.7508H32.3222L32.3081 21.7789Z" fill="white"/>
<path d="M40.2297 21.7788V10.1035H47.629V11.8436H42.0372V20.0527H47.629V21.7928H40.2297V21.7788ZM41.0487 16.6568V14.9167H46.697V16.6568H41.0487Z" fill="white"/>
<path d="M49.2954 21.7788L53.8423 10.1035H55.6921L60.2107 21.7788H58.2762L55.5932 14.7484C55.565 14.6642 55.4944 14.4817 55.3955 14.187C55.2967 13.8924 55.1979 13.5556 55.0708 13.1907C54.9437 12.8259 54.8307 12.4891 54.7319 12.1804C54.633 11.8716 54.5624 11.6752 54.5342 11.591H54.9154C54.8448 11.7594 54.7742 11.9979 54.6754 12.2926C54.5766 12.5873 54.4777 12.882 54.3789 13.2048C54.28 13.5275 54.167 13.8362 54.0682 14.1169C53.9694 14.3975 53.8846 14.6361 53.814 14.8185L51.1452 21.7928H49.2954V21.7788ZM51.3147 18.874L51.9925 17.1339H57.3301L58.1067 18.874H51.3288H51.3147Z" fill="white"/>
<path d="M62.2722 21.7788V10.1035H67.2709C67.9487 10.1035 68.5559 10.2719 69.1208 10.5947C69.6856 10.9174 70.1374 11.3665 70.4763 11.9278C70.8152 12.4891 70.9847 13.1206 70.9847 13.8222C70.9847 14.4537 70.8152 15.043 70.4763 15.5903C70.1374 16.1376 69.6997 16.5726 69.1349 16.8954C68.57 17.2181 67.9487 17.3865 67.2709 17.3865H64.0797V21.7647H62.2722V21.7788ZM64.0797 15.6605H67.4404C67.7652 15.6605 68.0617 15.5763 68.3159 15.4219C68.57 15.2676 68.7677 15.043 68.9231 14.7484C69.0784 14.4537 69.1349 14.1449 69.1349 13.8082C69.1349 13.4152 69.036 13.0785 68.8525 12.7838C68.6689 12.4891 68.4147 12.2646 68.0758 12.0962C67.751 11.9278 67.3698 11.8436 66.9603 11.8436H64.0797V15.6605ZM69.2478 21.7788L66.2543 16.5165L68.1182 16.0955L71.4365 21.7928H69.2337L69.2478 21.7788Z" fill="white"/>
<path d="M16.4506 31.8964C14.9397 31.8964 13.5841 31.5736 12.3697 30.9281C11.1553 30.2826 10.1386 29.3424 9.33374 28.1216L11.5648 25.722C12.4685 26.7323 13.2875 27.4199 14.0077 27.7988C14.7278 28.1777 15.5186 28.3741 16.3941 28.3741C17.1707 28.3741 17.8768 28.2058 18.4981 27.869C19.1194 27.5322 19.6136 27.0691 19.9807 26.4797C20.3479 25.8904 20.5314 25.2589 20.5314 24.5572C20.5314 23.7995 20.362 23.1259 20.009 22.5365C19.656 21.9472 19.19 21.4841 18.5828 21.1333C17.9897 20.7824 17.2978 20.614 16.5353 20.614C16.1258 20.614 15.7304 20.6421 15.3633 20.7123C14.9961 20.7684 14.5584 20.8947 14.0783 21.0771C13.5982 21.2595 12.9769 21.5542 12.2426 21.9331L10.3222 19.3511L11.5931 10.1035H23.5674V13.6398H13.8524L14.742 12.6575L13.7253 19.4774L12.5815 18.6775C12.8498 18.4249 13.2452 18.2004 13.7676 17.9759C14.2901 17.7514 14.8691 17.5689 15.4904 17.4286C16.1117 17.2883 16.7189 17.2181 17.3119 17.2181C18.6534 17.2181 19.8537 17.5268 20.8986 18.1443C21.9576 18.7617 22.7908 19.6037 23.3979 20.6842C24.0051 21.7647 24.3299 22.9996 24.3299 24.3888C24.3299 25.7781 23.9769 27.0831 23.2991 28.2198C22.6072 29.3564 21.6611 30.2545 20.475 30.9281C19.2747 31.5876 17.9332 31.9244 16.4506 31.9244V31.8964Z" fill="white"/>
<path d="M29.3428 31.8684L27.6765 26.3535H28.3402L29.4134 29.988C29.4557 30.1143 29.4981 30.2266 29.5263 30.3528C29.5546 30.4791 29.5828 30.5774 29.5969 30.6756L29.6534 30.9843C29.6675 31.0825 29.6958 31.1948 29.7099 31.3071H29.5828C29.6534 31.0545 29.7099 30.8721 29.7523 30.7177C29.7946 30.5774 29.837 30.4511 29.8793 30.3388C29.9217 30.2266 29.9641 30.1003 30.0205 29.9599L30.9525 27.6165H31.5315L32.4775 29.974C32.534 30.1143 32.5905 30.2546 32.647 30.3949C32.6894 30.5212 32.7458 30.6616 32.7882 30.8019C32.8306 30.9422 32.8729 31.0966 32.9153 31.265L32.7882 31.293C32.8164 31.1667 32.8306 31.0545 32.8447 30.9703C32.8588 30.8861 32.8729 30.8159 32.887 30.7458C32.9012 30.6756 32.9153 30.6195 32.9294 30.5493C32.9435 30.4791 32.9718 30.409 32.9859 30.3107C33.0141 30.2125 33.0424 30.1003 33.0847 29.9599L34.1579 26.3675H34.8216L33.1271 31.8824H32.6188L31.122 28.3462L31.2632 28.3742L29.8229 31.8964H29.3145L29.3428 31.8684Z" fill="white"/>
<path d="M34.9204 31.8684L37.0385 26.3535H37.7445L39.8485 31.8684H39.1707L37.8151 28.29C37.7728 28.1918 37.7304 28.0795 37.688 27.9392C37.6457 27.7989 37.5892 27.6726 37.5468 27.5182C37.5045 27.3639 37.448 27.2376 37.4056 27.0972C37.3633 26.9569 37.3209 26.8447 37.2785 26.7324H37.4339C37.3915 26.8587 37.3491 26.999 37.3068 27.1253C37.2644 27.2656 37.222 27.3919 37.1656 27.5323C37.1232 27.6726 37.0667 27.7989 37.0244 27.9252C36.982 28.0515 36.9255 28.1918 36.8831 28.3181L35.5417 31.8544H34.9062L34.9204 31.8684ZM35.8241 30.3528L36.05 29.7494H38.6765L38.9306 30.3528H35.8241Z" fill="white"/>
<path d="M40.8794 31.8684V26.3535H43.0539C43.3787 26.3535 43.6611 26.4237 43.9294 26.578C44.1977 26.7324 44.3954 26.9289 44.5507 27.1814C44.7061 27.434 44.7767 27.7287 44.7767 28.0515C44.7767 28.3602 44.7061 28.6268 44.5507 28.8794C44.3954 29.132 44.1977 29.3285 43.9435 29.4688C43.6894 29.6091 43.407 29.6793 43.0822 29.6793H41.4865V31.8544H40.8652L40.8794 31.8684ZM41.4865 29.0899H43.1387C43.3364 29.0899 43.5058 29.0478 43.6611 28.9496C43.8023 28.8654 43.9294 28.7391 44.0141 28.5847C44.0989 28.4304 44.1412 28.2479 44.1412 28.0515C44.1412 27.841 44.0848 27.6445 43.9859 27.4761C43.8871 27.3077 43.7459 27.1814 43.5764 27.0832C43.3928 26.985 43.1951 26.9429 42.9692 26.9429H41.5007V29.0899H41.4865ZM44.2542 31.8684L42.8563 29.4407L43.4493 29.2302L44.9885 31.8544H44.2542V31.8684Z" fill="white"/>
<path d="M46.104 31.8684V26.3535H48.2785C48.6033 26.3535 48.8857 26.4237 49.154 26.578C49.4223 26.7324 49.62 26.9289 49.7753 27.1814C49.9307 27.434 50.0013 27.7287 50.0013 28.0515C50.0013 28.3602 49.9307 28.6268 49.7753 28.8794C49.62 29.132 49.4223 29.3285 49.1682 29.4688C48.914 29.6091 48.6316 29.6793 48.3068 29.6793H46.7112V31.8544H46.0898L46.104 31.8684ZM46.7253 29.0899H48.3774C48.5751 29.0899 48.7445 29.0478 48.8999 28.9496C49.0411 28.8654 49.1682 28.7391 49.2529 28.5847C49.3376 28.4304 49.38 28.2479 49.38 28.0515C49.38 27.841 49.3235 27.6445 49.2246 27.4761C49.1258 27.3077 48.9846 27.1814 48.8151 27.0832C48.6316 26.985 48.4339 26.9429 48.2079 26.9429H46.7394V29.0899H46.7253ZM49.4788 31.8684L48.0809 29.4407L48.6739 29.2302L50.2131 31.8544H49.4788V31.8684Z" fill="white"/>
<path d="M50.7075 31.8684L52.8256 26.3535H53.5316L55.6356 31.8684H54.9578L53.6022 28.29C53.5599 28.1918 53.5175 28.0795 53.4751 27.9392C53.4328 27.7989 53.3763 27.6726 53.3339 27.5182C53.2916 27.3639 53.2351 27.2376 53.1927 27.0972C53.1504 26.9569 53.108 26.8447 53.0656 26.7324H53.221C53.1786 26.8587 53.1362 26.999 53.0939 27.1253C53.0515 27.2656 53.0092 27.3919 52.9527 27.5323C52.9103 27.6726 52.8538 27.7989 52.8115 27.9252C52.7691 28.0515 52.7126 28.1918 52.6703 28.3181L51.3288 31.8544H50.6934L50.7075 31.8684ZM51.6112 30.3528L51.8371 29.7494H54.4636L54.7178 30.3528H51.6112Z" fill="white"/>
<path d="M56.6663 31.8684V26.3535H57.2311L60.8601 31.1246L60.7471 31.265C60.733 31.1808 60.7189 31.0545 60.7189 30.8861C60.7189 30.7177 60.7048 30.5212 60.6907 30.3107C60.6907 30.1003 60.6765 29.8757 60.6765 29.6512C60.6765 29.4267 60.6765 29.1881 60.6765 28.9776C60.6765 28.7671 60.6765 28.5567 60.6765 28.3742V26.3535H61.2978V31.8684H60.7189L57.104 27.1534L57.2028 26.985C57.217 27.1955 57.2311 27.406 57.2452 27.6024C57.2593 27.7989 57.2734 28.0094 57.2734 28.1918C57.2734 28.3742 57.2876 28.5567 57.2876 28.711C57.2876 28.8654 57.2876 29.0057 57.2876 29.118C57.2876 29.2302 57.2876 29.3004 57.2876 29.3565V31.8544H56.6663V31.8684Z" fill="white"/>
<path d="M63.9101 31.8684V26.9569H62.3286V26.3535H66.1836V26.9569H64.5314V31.8684H63.9101Z" fill="white"/>
<path d="M68.81 31.8684V29.118L68.8665 29.4968L66.6213 26.3535H67.3697L69.2054 28.9636H69.036L70.7305 26.3535H71.4365L69.2901 29.5951L69.4031 29.0618V31.8684H68.7959H68.81Z" fill="white"/>
</g>
<defs>
<clipPath id="clip0_6_1489">
<rect width="81.9" height="42" fill="white"/>
</clipPath>
</defs>
</svg>
